<?xml version="1.0" encoding="utf-8"?>
<!-- Generator: Adobe Illustrator 23.0.4, SVG Export Plug-In . SVG Version: 6.00 Build 0)  -->
<svg version="1.1" id="Layer_1" xmlns="http://www.w3.org/2000/svg" xmlns:xlink="http://www.w3.org/1999/xlink" x="0px" y="0px"
	 viewBox="0 0 33.2 33.2" style="enable-background:new 0 0 33.2 33.2;" xml:space="preserve">
<style type="text/css">
	.st0{fill:#BEE9FC;}
	.st1{fill:#FFFFFF;}
	.st2{fill:#FFFFFF;stroke:#000000;stroke-linejoin:round;stroke-miterlimit:10;}
	.st3{fill:#EB5424;}
	.st4{fill:none;stroke:#000000;stroke-linecap:round;stroke-linejoin:round;stroke-miterlimit:10;}
	.st5{fill:#FFFFFF;stroke:#000000;stroke-linecap:round;stroke-linejoin:round;stroke-miterlimit:10;}
	.st6{fill:#FFFFFF;stroke:#444444;stroke-linejoin:round;stroke-miterlimit:10;}
	.st7{fill:none;stroke:#000000;stroke-width:3;stroke-miterlimit:10;}
	.st8{fill:none;stroke:#000000;stroke-width:3;stroke-linejoin:round;stroke-miterlimit:10;}
	.st9{fill:none;stroke:#000000;stroke-width:0.5;stroke-linecap:round;stroke-linejoin:round;stroke-miterlimit:10;}
	.st10{fill:#3445DC;}
	.st11{fill:none;stroke:#EB5424;stroke-linecap:round;stroke-linejoin:round;stroke-miterlimit:10;}
	.st12{fill:none;stroke:#000000;stroke-linejoin:round;stroke-miterlimit:10;}
	.st13{fill:none;stroke:#000000;stroke-linecap:round;stroke-miterlimit:10;}
	.st14{fill:none;stroke:#000000;stroke-width:0.5;stroke-linecap:round;stroke-miterlimit:10;}
	.st15{fill:#FFFFFF;stroke:#FFFFFF;stroke-width:0.5;stroke-linecap:round;stroke-linejoin:round;stroke-miterlimit:10;}
	.st16{fill:#EB5424;stroke:#000000;stroke-linecap:round;stroke-linejoin:round;stroke-miterlimit:10;}
	.st17{fill:#EB5424;stroke:#000000;stroke-miterlimit:10;}
	.st18{fill:none;stroke:#000000;stroke-width:1.5;stroke-miterlimit:10;}
	.st19{fill:none;stroke:#000000;stroke-width:1.5;stroke-linejoin:round;stroke-miterlimit:10;}
	.st20{fill:none;stroke:#FFFFFF;stroke-linecap:round;stroke-linejoin:round;stroke-miterlimit:10;}
	.st21{fill:none;stroke:#000000;stroke-width:0.5;stroke-linejoin:round;stroke-miterlimit:10;}
	.st22{fill:none;stroke:#FFFFFF;stroke-width:0.5;stroke-linecap:round;stroke-linejoin:round;stroke-miterlimit:10;}
	.st23{fill:none;stroke:#EB5424;stroke-width:0.5;stroke-linecap:round;stroke-linejoin:round;stroke-miterlimit:10;}
	.st24{fill:#EB5424;stroke:#000000;stroke-width:0.5;stroke-linecap:round;stroke-linejoin:round;stroke-miterlimit:10;}
	.st25{fill:none;stroke:#000000;stroke-linecap:round;stroke-linejoin:round;stroke-dasharray:0,3.0066;}
	.st26{fill:none;stroke:#000000;stroke-linecap:round;stroke-linejoin:round;stroke-dasharray:0,3.0071;}
	.st27{fill:#FFFFFF;stroke:#444444;stroke-width:1.2;stroke-linejoin:round;stroke-miterlimit:10;}
	.st28{fill:none;stroke:#000000;stroke-width:1.2;stroke-miterlimit:10;}
	.st29{fill:none;stroke:#000000;stroke-width:1.2;stroke-linejoin:round;stroke-miterlimit:10;}
	.st30{clip-path:url(#SVGID_2_);}
	.st31{fill:none;stroke:#000000;stroke-linecap:round;stroke-linejoin:round;stroke-dasharray:0,2.9263;}
	.st32{clip-path:url(#SVGID_4_);}
	.st33{fill:none;stroke:#000000;stroke-linecap:round;stroke-linejoin:round;stroke-dasharray:0,3.0117;}
	.st34{fill:none;stroke:#000000;stroke-width:0.5;stroke-miterlimit:10;}
	.st35{fill:none;stroke:#FFFFFF;stroke-width:0.5;stroke-linejoin:round;stroke-miterlimit:10;}
	.st36{fill:none;stroke:#000000;stroke-width:0.8;stroke-miterlimit:10;}
	.st37{fill:none;stroke:#000000;stroke-width:0.8;stroke-linejoin:round;stroke-miterlimit:10;}
	.st38{fill:none;stroke:#EB5424;stroke-miterlimit:10;}
	.st39{fill:none;stroke:#000000;stroke-miterlimit:10;}
	.st40{fill:none;stroke:#EB5424;stroke-width:0.5;stroke-miterlimit:10;}
	.st41{fill:#FFFDFD;stroke:#EB5424;stroke-linecap:round;stroke-linejoin:round;stroke-miterlimit:10;}
	.st42{fill:none;stroke:#EB5424;stroke-linecap:round;stroke-linejoin:round;stroke-miterlimit:10;stroke-dasharray:2;}
	.st43{fill:#FFFFFF;stroke:#EB5424;stroke-linecap:round;stroke-linejoin:round;stroke-miterlimit:10;}
	
		.st44{fill:none;stroke:#EB5424;stroke-width:0.5;stroke-linecap:round;stroke-linejoin:round;stroke-miterlimit:10;stroke-dasharray:2;}
	.st45{fill:#FFFFFF;stroke:#000000;stroke-width:0.5;stroke-linecap:round;stroke-linejoin:round;stroke-miterlimit:10;}
	.st46{fill:none;stroke:#EB5424;stroke-width:2;stroke-linecap:round;stroke-linejoin:round;stroke-miterlimit:10;}
	.st47{fill:#FFFFFF;stroke:#FFFFFF;stroke-linecap:round;stroke-linejoin:round;stroke-miterlimit:10;}
</style>
<g>
	<g>
		<g>
			<path class="st1" d="M9.9,24.6H5.1c-0.1,0-0.2-0.1-0.2-0.2V13.1c0-0.1,0.1-0.2,0.2-0.2h3.7C8.9,12.8,9,13,9,13.1
				s-0.1,0.2-0.2,0.2H5.4v10.7h4.6c0.1,0,0.2,0.1,0.2,0.2S10.1,24.6,9.9,24.6z"/>
		</g>
		<g>
			<path class="st1" d="M28.1,24.6h-2.9c-0.1,0-0.2-0.1-0.2-0.2s0.1-0.2,0.2-0.2h2.9c0.1,0,0.2,0.1,0.2,0.2S28.3,24.6,28.1,24.6z"/>
		</g>
		<g>
			<path class="st3" d="M14.4,27.9h-1.7c-1.9,0-3.5-1.6-3.5-3.5v0c0-1.9,1.6-3.5,3.5-3.5h1.7V27.9z"/>
		</g>
		<g>
			<g>
				<path class="st1" d="M20.3,23.1h-2.6c-0.1,0-0.2-0.1-0.2-0.2s0.1-0.2,0.2-0.2h2.6c0.1,0,0.2,0.1,0.2,0.2S20.4,23.1,20.3,23.1z"
					/>
			</g>
			<g>
				<path class="st1" d="M20.3,26.1h-2.6c-0.1,0-0.2-0.1-0.2-0.2s0.1-0.2,0.2-0.2h2.6c0.1,0,0.2,0.1,0.2,0.2S20.4,26.1,20.3,26.1z"
					/>
			</g>
		</g>
		<g>
			<path class="st1" d="M20.5,20.8h1.7c1.9,0,3.5,1.6,3.5,3.5v0c0,1.9-1.6,3.5-3.5,3.5h-1.7V20.8z"/>
		</g>
	</g>
	<g>
		<path class="st1" d="M9.2,14.1L9.2,14.1c-0.6,0-1.1-0.5-1.1-1.1v0c0-0.6,0.5-1.1,1.1-1.1h0"/>
	</g>
	<g>
		<g>
			<path class="st1" d="M22.4,16H12.1c-1.8,0-3.2-1.4-3.2-3.2c0-1.7,1.3-3.1,3-3.2c0.4-2.6,2.7-4.5,5.4-4.5c1.9,0,3.7,1,4.7,2.7
				c0.1,0,0.3,0,0.4,0c2.3,0,4.1,1.8,4.1,4.1S24.7,16,22.4,16z M12,10.2c-1.5,0-2.7,1.2-2.7,2.7s1.2,2.7,2.7,2.7h10.3
				c2,0,3.6-1.6,3.6-3.6s-1.6-3.6-3.6-3.6c-0.2,0-0.3,0-0.5,0.1c-0.1,0-0.2,0-0.3-0.1c-0.9-1.6-2.5-2.6-4.3-2.6
				c-2.5,0-4.6,1.9-4.9,4.3C12.3,10.1,12.2,10.2,12,10.2z"/>
		</g>
		<g>
			<path class="st3" d="M16.9,5.6c0,0,3,0.3,3.9,4.1l0.9-1.5C21.6,8.3,20.4,5.4,16.9,5.6z"/>
		</g>
	</g>
</g>
</svg>
