<?xml version="1.0" encoding="utf-8"?>
<!-- Generator: Adobe Illustrator 23.0.4, SVG Export Plug-In . SVG Version: 6.00 Build 0)  -->
<svg version="1.1" id="Layer_1" xmlns="http://www.w3.org/2000/svg" xmlns:xlink="http://www.w3.org/1999/xlink" x="0px" y="0px"
	 viewBox="0 0 33.2 33.2" style="enable-background:new 0 0 33.2 33.2;" xml:space="preserve">
<style type="text/css">
	.st0{fill:#BEE9FC;}
	.st1{fill:#FFFFFF;}
	.st2{fill:#FFFFFF;stroke:#000000;stroke-linejoin:round;stroke-miterlimit:10;}
	.st3{fill:#EB5424;}
	.st4{fill:none;stroke:#000000;stroke-linecap:round;stroke-linejoin:round;stroke-miterlimit:10;}
	.st5{fill:#FFFFFF;stroke:#000000;stroke-linecap:round;stroke-linejoin:round;stroke-miterlimit:10;}
	.st6{fill:#FFFFFF;stroke:#444444;stroke-linejoin:round;stroke-miterlimit:10;}
	.st7{fill:none;stroke:#000000;stroke-width:3;stroke-miterlimit:10;}
	.st8{fill:none;stroke:#000000;stroke-width:3;stroke-linejoin:round;stroke-miterlimit:10;}
	.st9{fill:none;stroke:#000000;stroke-width:0.5;stroke-linecap:round;stroke-linejoin:round;stroke-miterlimit:10;}
	.st10{fill:#3445DC;}
	.st11{fill:none;stroke:#EB5424;stroke-linecap:round;stroke-linejoin:round;stroke-miterlimit:10;}
	.st12{fill:none;stroke:#000000;stroke-linejoin:round;stroke-miterlimit:10;}
	.st13{fill:none;stroke:#000000;stroke-linecap:round;stroke-miterlimit:10;}
	.st14{fill:none;stroke:#000000;stroke-width:0.5;stroke-linecap:round;stroke-miterlimit:10;}
	.st15{fill:#FFFFFF;stroke:#FFFFFF;stroke-width:0.5;stroke-linecap:round;stroke-linejoin:round;stroke-miterlimit:10;}
	.st16{fill:#EB5424;stroke:#000000;stroke-linecap:round;stroke-linejoin:round;stroke-miterlimit:10;}
	.st17{fill:#EB5424;stroke:#000000;stroke-miterlimit:10;}
	.st18{fill:none;stroke:#000000;stroke-width:1.5;stroke-miterlimit:10;}
	.st19{fill:none;stroke:#000000;stroke-width:1.5;stroke-linejoin:round;stroke-miterlimit:10;}
	.st20{fill:none;stroke:#FFFFFF;stroke-linecap:round;stroke-linejoin:round;stroke-miterlimit:10;}
	.st21{fill:none;stroke:#000000;stroke-width:0.5;stroke-linejoin:round;stroke-miterlimit:10;}
	.st22{fill:none;stroke:#FFFFFF;stroke-width:0.5;stroke-linecap:round;stroke-linejoin:round;stroke-miterlimit:10;}
	.st23{fill:none;stroke:#EB5424;stroke-width:0.5;stroke-linecap:round;stroke-linejoin:round;stroke-miterlimit:10;}
	.st24{fill:#EB5424;stroke:#000000;stroke-width:0.5;stroke-linecap:round;stroke-linejoin:round;stroke-miterlimit:10;}
	.st25{fill:none;stroke:#000000;stroke-linecap:round;stroke-linejoin:round;stroke-dasharray:0,3.0066;}
	.st26{fill:none;stroke:#000000;stroke-linecap:round;stroke-linejoin:round;stroke-dasharray:0,3.0071;}
	.st27{fill:#FFFFFF;stroke:#444444;stroke-width:1.2;stroke-linejoin:round;stroke-miterlimit:10;}
	.st28{fill:none;stroke:#000000;stroke-width:1.2;stroke-miterlimit:10;}
	.st29{fill:none;stroke:#000000;stroke-width:1.2;stroke-linejoin:round;stroke-miterlimit:10;}
	.st30{clip-path:url(#SVGID_2_);}
	.st31{fill:none;stroke:#000000;stroke-linecap:round;stroke-linejoin:round;stroke-dasharray:0,2.9263;}
	.st32{clip-path:url(#SVGID_4_);}
	.st33{fill:none;stroke:#000000;stroke-linecap:round;stroke-linejoin:round;stroke-dasharray:0,3.0117;}
	.st34{fill:none;stroke:#000000;stroke-width:0.5;stroke-miterlimit:10;}
	.st35{fill:none;stroke:#FFFFFF;stroke-width:0.5;stroke-linejoin:round;stroke-miterlimit:10;}
	.st36{fill:none;stroke:#000000;stroke-width:0.8;stroke-miterlimit:10;}
	.st37{fill:none;stroke:#000000;stroke-width:0.8;stroke-linejoin:round;stroke-miterlimit:10;}
	.st38{fill:none;stroke:#EB5424;stroke-miterlimit:10;}
	.st39{fill:none;stroke:#000000;stroke-miterlimit:10;}
	.st40{fill:none;stroke:#EB5424;stroke-width:0.5;stroke-miterlimit:10;}
	.st41{fill:#FFFDFD;stroke:#EB5424;stroke-linecap:round;stroke-linejoin:round;stroke-miterlimit:10;}
	.st42{fill:none;stroke:#EB5424;stroke-linecap:round;stroke-linejoin:round;stroke-miterlimit:10;stroke-dasharray:2;}
	.st43{fill:#FFFFFF;stroke:#EB5424;stroke-linecap:round;stroke-linejoin:round;stroke-miterlimit:10;}
	
		.st44{fill:none;stroke:#EB5424;stroke-width:0.5;stroke-linecap:round;stroke-linejoin:round;stroke-miterlimit:10;stroke-dasharray:2;}
	.st45{fill:#FFFFFF;stroke:#000000;stroke-width:0.5;stroke-linecap:round;stroke-linejoin:round;stroke-miterlimit:10;}
	.st46{fill:none;stroke:#EB5424;stroke-width:2;stroke-linecap:round;stroke-linejoin:round;stroke-miterlimit:10;}
	.st47{fill:#FFFFFF;stroke:#FFFFFF;stroke-linecap:round;stroke-linejoin:round;stroke-miterlimit:10;}
</style>
<g>
	<g>
		<g>
			<path class="st1" d="M8.4,17.1c-0.1,0-0.1,0-0.2,0c-0.4-0.1-0.8-0.4-0.9-0.8l-0.2-0.7C7,15.2,6.7,15,6.4,15.1l-0.7,0.1
				c-0.4,0.1-0.9-0.1-1.1-0.5c-0.3-0.4-0.3-0.8,0-1.2l0.4-0.6C5,12.6,5,12.3,4.7,12.1l-0.6-0.4c-0.4-0.3-0.5-0.7-0.5-1.1
				S4,9.7,4.5,9.6l0.7-0.2C5.5,9.4,5.7,9,5.6,8.7L5.5,8C5.4,7.6,5.6,7.1,6,6.9c0.4-0.3,0.8-0.3,1.2,0l0.6,0.4C8.1,7.4,8.5,7.3,8.7,7
				l0.4-0.6C9.3,6,9.8,5.9,10.2,5.9C10.6,6,11,6.3,11.1,6.8l0.2,0.7C11.4,7.8,11.7,8,12,7.9l0.7-0.1c0.4-0.1,0.9,0.1,1.1,0.5
				c0.3,0.4,0.3,0.8,0,1.2l-0.4,0.6c-0.2,0.3-0.1,0.6,0.2,0.8l0.6,0.4c0.4,0.3,0.5,0.7,0.5,1.1c-0.1,0.4-0.4,0.8-0.8,0.9l-0.7,0.2
				c-0.3,0.1-0.5,0.4-0.5,0.7l0.1,0.7c0.1,0.4-0.1,0.9-0.5,1.1c-0.4,0.3-0.8,0.3-1.2,0l-0.6-0.4c-0.3-0.2-0.6-0.1-0.8,0.2l-0.4,0.6
				C9.1,16.9,8.8,17.1,8.4,17.1z M6.5,14.6c0.5,0,1,0.3,1.1,0.8l0.2,0.7c0.1,0.2,0.3,0.4,0.5,0.5c0.2,0,0.5-0.1,0.6-0.3l0.4-0.6
				c0.3-0.5,1-0.6,1.5-0.3l0.6,0.4c0.2,0.1,0.5,0.1,0.7,0c0.2-0.1,0.3-0.4,0.3-0.6l-0.1-0.7c-0.1-0.6,0.3-1.1,0.8-1.3l0.7-0.2
				c0.2-0.1,0.4-0.3,0.5-0.5S14.2,12,14,11.8l-0.6-0.4c-0.5-0.3-0.6-1-0.3-1.5l0.4-0.6c0.1-0.2,0.1-0.5,0-0.7
				c-0.1-0.2-0.4-0.3-0.6-0.3l-0.7,0.1c-0.6,0.1-1.1-0.3-1.3-0.8l-0.2-0.7c-0.1-0.2-0.3-0.4-0.5-0.5c-0.2,0-0.5,0.1-0.6,0.3L9.1,7.3
				c-0.3,0.5-1,0.6-1.5,0.3L6.9,7.3c-0.2-0.1-0.5-0.1-0.7,0C6,7.4,6,7.7,6,7.9l0.1,0.7c0.1,0.6-0.3,1.1-0.8,1.3l-0.7,0.2
				c-0.2,0.1-0.4,0.3-0.5,0.5c0,0.2,0.1,0.5,0.3,0.6L5,11.7c0.5,0.3,0.6,1,0.3,1.5l-0.4,0.6c-0.1,0.2-0.1,0.5,0,0.7
				c0.1,0.2,0.4,0.3,0.6,0.3l0.7-0.1C6.4,14.6,6.4,14.6,6.5,14.6z"/>
		</g>
		<g>
			<path class="st1" d="M9.2,13.9c-0.1,0-0.3,0-0.4,0c-0.6-0.1-1.2-0.5-1.5-1c-0.4-0.5-0.5-1.2-0.4-1.8c0.1-0.6,0.5-1.2,1-1.5
				C8.4,9.2,9,9.1,9.6,9.2c0.6,0.1,1.2,0.5,1.5,1c0.4,0.5,0.5,1.2,0.4,1.8l0,0C11.3,13.1,10.3,13.9,9.2,13.9z M9.2,9.6
				c-0.4,0-0.8,0.1-1.1,0.3c-0.4,0.3-0.7,0.7-0.8,1.2c-0.2,1,0.5,2,1.5,2.2c0.5,0.1,1,0,1.4-0.3s0.7-0.7,0.8-1.2s0-1-0.3-1.4
				S10,9.8,9.5,9.7C9.4,9.6,9.3,9.6,9.2,9.6z M11.3,11.9L11.3,11.9L11.3,11.9z"/>
		</g>
		<g>
			<circle class="st3" cx="9.2" cy="11.5" r="0.7"/>
		</g>
	</g>
	<g>
		<g>
			<path class="st1" d="M21.6,27.3c-0.5,0-1-0.3-1.2-0.8l0-0.1c-0.1-0.2-0.3-0.4-0.5-0.5c-0.3-0.1-0.5,0-0.7,0.2L19,26.1
				c-0.4,0.4-1,0.4-1.5,0.1s-0.7-0.8-0.6-1.3l0-0.1c0-0.3,0-0.5-0.2-0.7c-0.2-0.2-0.4-0.3-0.7-0.2l-0.1,0c-0.5,0.1-1.1-0.1-1.3-0.6
				c-0.3-0.5-0.2-1.1,0.1-1.5l0.1-0.1c0.2-0.2,0.2-0.5,0.2-0.7c-0.1-0.3-0.2-0.4-0.5-0.5l-0.1,0c-0.5-0.2-0.9-0.7-0.9-1.2
				s0.3-1,0.8-1.2l0.1,0c0.2-0.1,0.4-0.3,0.5-0.5s0-0.5-0.2-0.7l-0.1-0.1c-0.4-0.4-0.4-1-0.1-1.5c0.3-0.5,0.8-0.7,1.3-0.6l0.1,0
				c0.3,0,0.5,0,0.7-0.2s0.3-0.4,0.2-0.7l0-0.1c-0.1-0.5,0.1-1.1,0.6-1.3c0.5-0.3,1.1-0.2,1.5,0.1l0.1,0.1c0.2,0.2,0.5,0.2,0.7,0.2
				c0.3-0.1,0.4-0.2,0.5-0.5l0-0.1c0.2-0.5,0.7-0.8,1.2-0.8c0.5,0,1,0.3,1.2,0.8l0,0.1c0.1,0.2,0.3,0.4,0.5,0.5
				c0.3,0.1,0.5,0,0.7-0.2l0.1-0.1c0.4-0.4,1-0.4,1.5-0.1s0.7,0.8,0.6,1.3l0,0.1c0,0.3,0,0.5,0.2,0.7c0.2,0.2,0.4,0.3,0.7,0.2l0.1,0
				c0.5-0.1,1.1,0.1,1.3,0.6c0.3,0.5,0.2,1.1-0.1,1.5l-0.1,0.1c-0.2,0.2-0.2,0.5-0.2,0.7c0.1,0.3,0.2,0.4,0.5,0.5l0.1,0
				c0.5,0.2,0.8,0.7,0.8,1.2c0,0.5-0.3,1-0.8,1.2l0,0l-0.1,0c-0.2,0.1-0.4,0.3-0.5,0.5c-0.1,0.3,0,0.5,0.2,0.7l0.1,0.1
				c0.4,0.4,0.4,1,0.1,1.5c-0.3,0.5-0.8,0.7-1.3,0.6l-0.1,0c-0.3,0-0.5,0-0.7,0.2c-0.2,0.2-0.3,0.4-0.2,0.7l0,0.1
				c0.1,0.5-0.1,1.1-0.6,1.3c-0.5,0.3-1.1,0.2-1.5-0.1L24.1,26c-0.2-0.2-0.5-0.2-0.7-0.2c-0.3,0.1-0.4,0.2-0.5,0.5l0,0.1
				C22.6,27,22.1,27.3,21.6,27.3z M19.6,25.4c0.1,0,0.2,0,0.3,0c0.4,0.1,0.7,0.4,0.9,0.8l0,0.1c0.1,0.4,0.5,0.5,0.7,0.5
				s0.6-0.1,0.7-0.5l0-0.1c0.1-0.4,0.5-0.7,0.9-0.8c0.4-0.1,0.8,0,1.2,0.3l0.1,0.1c0.3,0.3,0.7,0.2,0.9,0.1c0.2-0.1,0.5-0.4,0.4-0.8
				l0-0.1c-0.1-0.4,0.1-0.8,0.4-1.1s0.7-0.4,1.1-0.4l0.1,0c0.4,0.1,0.7-0.1,0.8-0.4c0.1-0.2,0.2-0.6-0.1-0.9L28,22.1
				c-0.3-0.3-0.4-0.8-0.3-1.2s0.4-0.7,0.8-0.9l0.1,0c0.4-0.1,0.5-0.5,0.5-0.7s-0.1-0.6-0.5-0.7l-0.1,0c-0.4-0.1-0.7-0.5-0.8-0.9
				c-0.1-0.4,0-0.8,0.3-1.2l0.1-0.1c0.3-0.3,0.2-0.7,0.1-0.9c-0.1-0.2-0.4-0.5-0.8-0.4l-0.1,0c-0.4,0.1-0.8-0.1-1.1-0.4
				c-0.3-0.3-0.4-0.7-0.4-1.1l0-0.1c0.1-0.4-0.1-0.7-0.4-0.8c-0.2-0.1-0.6-0.2-0.9,0.1l-0.1,0.1c-0.3,0.3-0.8,0.4-1.2,0.3
				c-0.4-0.1-0.7-0.4-0.9-0.8l0-0.1c-0.1-0.4-0.5-0.5-0.7-0.5s-0.6,0.1-0.7,0.5l0,0.1c-0.1,0.4-0.5,0.7-0.9,0.8
				c-0.4,0.1-0.8,0-1.2-0.3l-0.1-0.1c-0.3-0.3-0.7-0.2-0.9-0.1c-0.2,0.1-0.5,0.4-0.4,0.8l0,0.1c0.1,0.4-0.1,0.8-0.4,1.1
				c-0.3,0.3-0.7,0.4-1.1,0.4l-0.1,0c-0.4-0.1-0.7,0.1-0.8,0.4c-0.1,0.2-0.2,0.6,0.1,0.9l0.1,0.1c0.3,0.3,0.4,0.8,0.3,1.2
				c-0.1,0.4-0.4,0.7-0.8,0.9l-0.1,0C14.2,18.7,14,19,14,19.3s0.1,0.6,0.5,0.7l0.1,0c0.4,0.1,0.7,0.5,0.8,0.9c0.1,0.4,0,0.8-0.3,1.2
				l-0.1,0.1c-0.3,0.3-0.2,0.7-0.1,0.9c0.1,0.2,0.4,0.5,0.8,0.4l0.1,0c0.4-0.1,0.8,0.1,1.1,0.4c0.3,0.3,0.4,0.7,0.4,1.1l0,0.1
				c-0.1,0.4,0.1,0.7,0.4,0.8c0.2,0.1,0.6,0.2,0.9-0.1l0.1-0.1C19,25.5,19.3,25.4,19.6,25.4z M28.7,20.2L28.7,20.2L28.7,20.2z"/>
		</g>
	</g>
	<g>
		<path class="st1" d="M9.3,23.9c-0.1,0-0.2,0-0.2,0c-0.3-0.1-0.5-0.3-0.5-0.6l-0.2-1.4c0-0.1,0-0.1-0.1-0.2l-1-0.9
			C7,20.6,6.9,20.3,7,20c0.1-0.3,0.3-0.5,0.6-0.5L9,19.3c0.1,0,0.1,0,0.2-0.1l0.9-1c0.2-0.2,0.5-0.3,0.8-0.2
			c0.3,0.1,0.5,0.3,0.5,0.6l0.2,1.4c0,0.1,0,0.1,0.1,0.2l1,0.9c0.2,0.2,0.3,0.5,0.2,0.8s-0.3,0.5-0.6,0.5c0,0,0,0,0,0L11,22.6
			c-0.1,0-0.1,0-0.2,0.1l-0.9,1C9.7,23.8,9.5,23.9,9.3,23.9z M10.7,18.4c-0.1,0-0.1,0-0.2,0.1l-0.9,1c-0.1,0.1-0.3,0.2-0.5,0.2
			l-1.4,0.2c-0.1,0-0.2,0.1-0.2,0.2c0,0.1,0,0.2,0.1,0.3l1,0.9c0.1,0.1,0.2,0.3,0.2,0.5L9,23.2c0,0.1,0.1,0.2,0.2,0.2
			c0.1,0,0.2,0,0.3-0.1l0.9-1c0.1-0.1,0.3-0.2,0.5-0.2l1.4-0.2c0.1,0,0.2-0.1,0.2-0.2c0-0.1,0-0.2-0.1-0.3l-1-0.9
			c-0.1-0.1-0.2-0.3-0.2-0.5L11,18.7C11,18.5,10.9,18.5,10.7,18.4C10.8,18.4,10.7,18.4,10.7,18.4z M12.3,22.2L12.3,22.2L12.3,22.2z"
			/>
	</g>
	<g>
		<circle class="st3" cx="10" cy="20.9" r="0.7"/>
	</g>
	<g>
		<path class="st3" d="M21.6,14.7c-2.5,0-4.5,2-4.5,4.5s2,4.5,4.5,4.5c2.5,0,4.5-2,4.5-4.5S24.1,14.7,21.6,14.7z M21.6,21.8
			c-1.4,0-2.5-1.1-2.5-2.5s1.1-2.5,2.5-2.5s2.5,1.1,2.5,2.5S23,21.8,21.6,21.8z"/>
	</g>
	<g>
		<path class="st1" d="M21.6,22c-1.5,0-2.8-1.2-2.8-2.8s1.2-2.8,2.8-2.8s2.8,1.2,2.8,2.8S23.1,22,21.6,22z M21.6,17
			c-1.3,0-2.3,1-2.3,2.3s1,2.3,2.3,2.3s2.3-1,2.3-2.3S22.8,17,21.6,17z"/>
	</g>
</g>
</svg>
