<?xml version="1.0" encoding="utf-8"?>
<!-- Generator: Adobe Illustrator 23.0.4, SVG Export Plug-In . SVG Version: 6.00 Build 0)  -->
<svg version="1.1" id="Layer_1" xmlns="http://www.w3.org/2000/svg" xmlns:xlink="http://www.w3.org/1999/xlink" x="0px" y="0px"
	 viewBox="0 0 33.2 33.2" style="enable-background:new 0 0 33.2 33.2;" xml:space="preserve">
<style type="text/css">
	.st0{fill:#BEE9FC;}
	.st1{fill:#FFFFFF;}
	.st2{fill:#FFFFFF;stroke:#000000;stroke-linejoin:round;stroke-miterlimit:10;}
	.st3{fill:#EB5424;}
	.st4{fill:none;stroke:#000000;stroke-linecap:round;stroke-linejoin:round;stroke-miterlimit:10;}
	.st5{fill:#FFFFFF;stroke:#000000;stroke-linecap:round;stroke-linejoin:round;stroke-miterlimit:10;}
	.st6{fill:#FFFFFF;stroke:#444444;stroke-linejoin:round;stroke-miterlimit:10;}
	.st7{fill:none;stroke:#000000;stroke-width:3;stroke-miterlimit:10;}
	.st8{fill:none;stroke:#000000;stroke-width:3;stroke-linejoin:round;stroke-miterlimit:10;}
	.st9{fill:none;stroke:#000000;stroke-width:0.5;stroke-linecap:round;stroke-linejoin:round;stroke-miterlimit:10;}
	.st10{fill:#3445DC;}
	.st11{fill:none;stroke:#EB5424;stroke-linecap:round;stroke-linejoin:round;stroke-miterlimit:10;}
	.st12{fill:none;stroke:#000000;stroke-linejoin:round;stroke-miterlimit:10;}
	.st13{fill:none;stroke:#000000;stroke-linecap:round;stroke-miterlimit:10;}
	.st14{fill:none;stroke:#000000;stroke-width:0.5;stroke-linecap:round;stroke-miterlimit:10;}
	.st15{fill:#FFFFFF;stroke:#FFFFFF;stroke-width:0.5;stroke-linecap:round;stroke-linejoin:round;stroke-miterlimit:10;}
	.st16{fill:#EB5424;stroke:#000000;stroke-linecap:round;stroke-linejoin:round;stroke-miterlimit:10;}
	.st17{fill:#EB5424;stroke:#000000;stroke-miterlimit:10;}
	.st18{fill:none;stroke:#000000;stroke-width:1.5;stroke-miterlimit:10;}
	.st19{fill:none;stroke:#000000;stroke-width:1.5;stroke-linejoin:round;stroke-miterlimit:10;}
	.st20{fill:none;stroke:#FFFFFF;stroke-linecap:round;stroke-linejoin:round;stroke-miterlimit:10;}
	.st21{fill:none;stroke:#000000;stroke-width:0.5;stroke-linejoin:round;stroke-miterlimit:10;}
	.st22{fill:none;stroke:#FFFFFF;stroke-width:0.5;stroke-linecap:round;stroke-linejoin:round;stroke-miterlimit:10;}
	.st23{fill:none;stroke:#EB5424;stroke-width:0.5;stroke-linecap:round;stroke-linejoin:round;stroke-miterlimit:10;}
	.st24{fill:#EB5424;stroke:#000000;stroke-width:0.5;stroke-linecap:round;stroke-linejoin:round;stroke-miterlimit:10;}
	.st25{fill:none;stroke:#000000;stroke-linecap:round;stroke-linejoin:round;stroke-dasharray:0,3.0066;}
	.st26{fill:none;stroke:#000000;stroke-linecap:round;stroke-linejoin:round;stroke-dasharray:0,3.0071;}
	.st27{fill:#FFFFFF;stroke:#444444;stroke-width:1.2;stroke-linejoin:round;stroke-miterlimit:10;}
	.st28{fill:none;stroke:#000000;stroke-width:1.2;stroke-miterlimit:10;}
	.st29{fill:none;stroke:#000000;stroke-width:1.2;stroke-linejoin:round;stroke-miterlimit:10;}
	.st30{clip-path:url(#SVGID_2_);}
	.st31{fill:none;stroke:#000000;stroke-linecap:round;stroke-linejoin:round;stroke-dasharray:0,2.9263;}
	.st32{clip-path:url(#SVGID_4_);}
	.st33{fill:none;stroke:#000000;stroke-linecap:round;stroke-linejoin:round;stroke-dasharray:0,3.0117;}
	.st34{fill:none;stroke:#000000;stroke-width:0.5;stroke-miterlimit:10;}
	.st35{fill:none;stroke:#FFFFFF;stroke-width:0.5;stroke-linejoin:round;stroke-miterlimit:10;}
	.st36{fill:none;stroke:#000000;stroke-width:0.8;stroke-miterlimit:10;}
	.st37{fill:none;stroke:#000000;stroke-width:0.8;stroke-linejoin:round;stroke-miterlimit:10;}
	.st38{fill:none;stroke:#EB5424;stroke-miterlimit:10;}
	.st39{fill:none;stroke:#000000;stroke-miterlimit:10;}
	.st40{fill:none;stroke:#EB5424;stroke-width:0.5;stroke-miterlimit:10;}
	.st41{fill:#FFFDFD;stroke:#EB5424;stroke-linecap:round;stroke-linejoin:round;stroke-miterlimit:10;}
	.st42{fill:none;stroke:#EB5424;stroke-linecap:round;stroke-linejoin:round;stroke-miterlimit:10;stroke-dasharray:2;}
	.st43{fill:#FFFFFF;stroke:#EB5424;stroke-linecap:round;stroke-linejoin:round;stroke-miterlimit:10;}
	
		.st44{fill:none;stroke:#EB5424;stroke-width:0.5;stroke-linecap:round;stroke-linejoin:round;stroke-miterlimit:10;stroke-dasharray:2;}
	.st45{fill:#FFFFFF;stroke:#000000;stroke-width:0.5;stroke-linecap:round;stroke-linejoin:round;stroke-miterlimit:10;}
	.st46{fill:none;stroke:#EB5424;stroke-width:2;stroke-linecap:round;stroke-linejoin:round;stroke-miterlimit:10;}
	.st47{fill:#FFFFFF;stroke:#FFFFFF;stroke-linecap:round;stroke-linejoin:round;stroke-miterlimit:10;}
</style>
<g>
	<g>
		<path class="st1" d="M20.7,27.7h-8.1c-0.1,0-0.2,0-0.2-0.1c0-0.1-0.1-0.1,0-0.2l0.9-3.2l0.5,0.1l-0.8,2.9h7.5l-0.8-2.9l0.5-0.1
			l0.8,3.2c0,0.1,0,0.2,0,0.2C20.8,27.6,20.8,27.7,20.7,27.7z"/>
	</g>
	<g>
		<path class="st1" d="M26.9,24.3H6.3c-1,0-1.8-0.8-1.8-1.8V7.4c0-1,0.8-1.8,1.8-1.8h20.6c1,0,1.8,0.8,1.8,1.8v15.2
			C28.7,23.5,27.9,24.3,26.9,24.3z M6.3,6.1C5.6,6.1,5,6.6,5,7.4v15.2c0,0.7,0.6,1.3,1.3,1.3h20.6c0.7,0,1.3-0.6,1.3-1.3V7.4
			c0-0.7-0.6-1.3-1.3-1.3H6.3z"/>
	</g>
	<g>
		<path class="st1" d="M26.2,22.2H7c-0.2,0-0.3-0.2-0.3-0.3V8c0-0.2,0.2-0.3,0.3-0.3h19.2c0.2,0,0.3,0.2,0.3,0.3v13.9
			C26.6,22.1,26.4,22.2,26.2,22.2z M7.2,21.7h18.9V8.1H7.2V21.7z"/>
	</g>
	<g>
		<path class="st3" d="M21.8,14.3L21.8,14.3c-0.5-0.2-0.7-0.8-0.4-1.2l0,0c0.4-0.5,0-1.3-0.7-1.2l-0.1,0c-0.5,0.1-0.9-0.3-0.8-0.8
			l0-0.1c0.1-0.7-0.7-1.1-1.2-0.7l0,0c-0.4,0.3-1,0.2-1.1-0.3l0-0.1c-0.2-0.6-1.1-0.6-1.3,0l0,0.1c-0.2,0.5-0.8,0.6-1.1,0.3l0,0
			c-0.5-0.4-1.3,0-1.2,0.7l0,0.1c0.1,0.5-0.3,0.9-0.8,0.8l-0.1,0c-0.7-0.1-1.1,0.7-0.7,1.2l0,0c0.3,0.4,0.2,1-0.3,1.1l-0.1,0
			c-0.6,0.2-0.6,1.1,0,1.3l0.1,0c0.5,0.2,0.6,0.8,0.3,1.1l0,0c-0.4,0.5,0,1.3,0.7,1.2l0.1,0c0.5-0.1,0.9,0.3,0.8,0.8l0,0.1
			c-0.1,0.7,0.7,1.1,1.2,0.7l0,0c0.4-0.3,1-0.2,1.1,0.3l0,0.1c0.2,0.6,1.1,0.6,1.3,0l0-0.1c0.2-0.5,0.8-0.6,1.1-0.3l0,0
			c0.5,0.4,1.3,0,1.2-0.7l0-0.1c-0.1-0.5,0.3-0.9,0.8-0.8l0.1,0c0.7,0.1,1.1-0.7,0.7-1.2l0,0c-0.3-0.4-0.2-1,0.3-1.1l0.1,0
			C22.4,15.4,22.4,14.5,21.8,14.3z M16.9,16.7c-1,0-1.7-0.8-1.7-1.7s0.8-1.7,1.7-1.7c1,0,1.7,0.8,1.7,1.7S17.9,16.7,16.9,16.7z"/>
	</g>
	<g>
		<g>
			<path d="M16.9,16.9c-1.1,0-2-0.9-2-2s0.9-2,2-2s2,0.9,2,2S18,16.9,16.9,16.9z M16.9,13.5c-0.8,0-1.5,0.7-1.5,1.5
				c0,0.8,0.7,1.5,1.5,1.5c0.8,0,1.5-0.7,1.5-1.5C18.4,14.1,17.7,13.5,16.9,13.5z"/>
		</g>
	</g>
	<g>
		<path class="st1" d="M16.9,16.9c-1.1,0-2-0.9-2-2s0.9-2,2-2s2,0.9,2,2S18,16.9,16.9,16.9z M16.9,13.5c-0.8,0-1.5,0.7-1.5,1.5
			c0,0.8,0.7,1.5,1.5,1.5c0.8,0,1.5-0.7,1.5-1.5C18.4,14.1,17.7,13.5,16.9,13.5z"/>
	</g>
</g>
</svg>
