<?xml version="1.0" encoding="utf-8"?>
<!-- Generator: Adobe Illustrator 23.0.4, SVG Export Plug-In . SVG Version: 6.00 Build 0)  -->
<svg version="1.1" id="Layer_1" xmlns="http://www.w3.org/2000/svg" xmlns:xlink="http://www.w3.org/1999/xlink" x="0px" y="0px"
	 viewBox="0 0 33.2 33.2" style="enable-background:new 0 0 33.2 33.2;" xml:space="preserve">
<style type="text/css">
	.st0{fill:#BEE9FC;}
	.st1{fill:#FFFFFF;}
	.st2{fill:#FFFFFF;stroke:#000000;stroke-linejoin:round;stroke-miterlimit:10;}
	.st3{fill:#EB5424;}
	.st4{fill:none;stroke:#000000;stroke-linecap:round;stroke-linejoin:round;stroke-miterlimit:10;}
	.st5{fill:#FFFFFF;stroke:#000000;stroke-linecap:round;stroke-linejoin:round;stroke-miterlimit:10;}
	.st6{fill:#FFFFFF;stroke:#444444;stroke-linejoin:round;stroke-miterlimit:10;}
	.st7{fill:none;stroke:#000000;stroke-width:3;stroke-miterlimit:10;}
	.st8{fill:none;stroke:#000000;stroke-width:3;stroke-linejoin:round;stroke-miterlimit:10;}
	.st9{fill:none;stroke:#000000;stroke-width:0.5;stroke-linecap:round;stroke-linejoin:round;stroke-miterlimit:10;}
	.st10{fill:#3445DC;}
	.st11{fill:none;stroke:#EB5424;stroke-linecap:round;stroke-linejoin:round;stroke-miterlimit:10;}
	.st12{fill:none;stroke:#000000;stroke-linejoin:round;stroke-miterlimit:10;}
	.st13{fill:none;stroke:#000000;stroke-linecap:round;stroke-miterlimit:10;}
	.st14{fill:none;stroke:#000000;stroke-width:0.5;stroke-linecap:round;stroke-miterlimit:10;}
	.st15{fill:#FFFFFF;stroke:#FFFFFF;stroke-width:0.5;stroke-linecap:round;stroke-linejoin:round;stroke-miterlimit:10;}
	.st16{fill:#EB5424;stroke:#000000;stroke-linecap:round;stroke-linejoin:round;stroke-miterlimit:10;}
	.st17{fill:#EB5424;stroke:#000000;stroke-miterlimit:10;}
	.st18{fill:none;stroke:#000000;stroke-width:1.5;stroke-miterlimit:10;}
	.st19{fill:none;stroke:#000000;stroke-width:1.5;stroke-linejoin:round;stroke-miterlimit:10;}
	.st20{fill:none;stroke:#FFFFFF;stroke-linecap:round;stroke-linejoin:round;stroke-miterlimit:10;}
	.st21{fill:none;stroke:#000000;stroke-width:0.5;stroke-linejoin:round;stroke-miterlimit:10;}
	.st22{fill:none;stroke:#FFFFFF;stroke-width:0.5;stroke-linecap:round;stroke-linejoin:round;stroke-miterlimit:10;}
	.st23{fill:none;stroke:#EB5424;stroke-width:0.5;stroke-linecap:round;stroke-linejoin:round;stroke-miterlimit:10;}
	.st24{fill:#EB5424;stroke:#000000;stroke-width:0.5;stroke-linecap:round;stroke-linejoin:round;stroke-miterlimit:10;}
	.st25{fill:none;stroke:#000000;stroke-linecap:round;stroke-linejoin:round;stroke-dasharray:0,3.0066;}
	.st26{fill:none;stroke:#000000;stroke-linecap:round;stroke-linejoin:round;stroke-dasharray:0,3.0071;}
	.st27{fill:#FFFFFF;stroke:#444444;stroke-width:1.2;stroke-linejoin:round;stroke-miterlimit:10;}
	.st28{fill:none;stroke:#000000;stroke-width:1.2;stroke-miterlimit:10;}
	.st29{fill:none;stroke:#000000;stroke-width:1.2;stroke-linejoin:round;stroke-miterlimit:10;}
	.st30{clip-path:url(#SVGID_2_);}
	.st31{fill:none;stroke:#000000;stroke-linecap:round;stroke-linejoin:round;stroke-dasharray:0,2.9263;}
	.st32{clip-path:url(#SVGID_4_);}
	.st33{fill:none;stroke:#000000;stroke-linecap:round;stroke-linejoin:round;stroke-dasharray:0,3.0117;}
	.st34{fill:none;stroke:#000000;stroke-width:0.5;stroke-miterlimit:10;}
	.st35{fill:none;stroke:#FFFFFF;stroke-width:0.5;stroke-linejoin:round;stroke-miterlimit:10;}
	.st36{fill:none;stroke:#000000;stroke-width:0.8;stroke-miterlimit:10;}
	.st37{fill:none;stroke:#000000;stroke-width:0.8;stroke-linejoin:round;stroke-miterlimit:10;}
	.st38{fill:none;stroke:#EB5424;stroke-miterlimit:10;}
	.st39{fill:none;stroke:#000000;stroke-miterlimit:10;}
	.st40{fill:none;stroke:#EB5424;stroke-width:0.5;stroke-miterlimit:10;}
	.st41{fill:#FFFDFD;stroke:#EB5424;stroke-linecap:round;stroke-linejoin:round;stroke-miterlimit:10;}
	.st42{fill:none;stroke:#EB5424;stroke-linecap:round;stroke-linejoin:round;stroke-miterlimit:10;stroke-dasharray:2;}
	.st43{fill:#FFFFFF;stroke:#EB5424;stroke-linecap:round;stroke-linejoin:round;stroke-miterlimit:10;}
	
		.st44{fill:none;stroke:#EB5424;stroke-width:0.5;stroke-linecap:round;stroke-linejoin:round;stroke-miterlimit:10;stroke-dasharray:2;}
	.st45{fill:#FFFFFF;stroke:#000000;stroke-width:0.5;stroke-linecap:round;stroke-linejoin:round;stroke-miterlimit:10;}
	.st46{fill:none;stroke:#EB5424;stroke-width:2;stroke-linecap:round;stroke-linejoin:round;stroke-miterlimit:10;}
	.st47{fill:#FFFFFF;stroke:#FFFFFF;stroke-linecap:round;stroke-linejoin:round;stroke-miterlimit:10;}
</style>
<g>
	<g>
		<g>
			<rect x="7.6" y="9.3" class="st3" width="17.9" height="7.2"/>
		</g>
	</g>
	<g>
		<g>
			<path class="st1" d="M25.8,28.4H7.4c-0.1,0-0.2-0.1-0.2-0.2v-23c0-0.1,0.1-0.2,0.2-0.2h18.4c0.1,0,0.2,0.1,0.2,0.2v23
				C26.1,28.3,26,28.4,25.8,28.4z M7.7,27.9h17.9V5.4H7.7V27.9z"/>
		</g>
		<g>
			<path class="st1" d="M25.8,16.7H7.4c-0.1,0-0.2-0.1-0.2-0.2V9.3c0-0.1,0.1-0.2,0.2-0.2h18.4c0.1,0,0.2,0.1,0.2,0.2v7.1
				C26.1,16.6,26,16.7,25.8,16.7z M7.7,16.2h17.9V9.6H7.7V16.2z"/>
		</g>
		<g>
			<g>
				<circle class="st1" cx="18.6" cy="7.1" r="0.7"/>
			</g>
			<g>
				<path class="st1" d="M23.9,7.3h-3.1c-0.1,0-0.2-0.1-0.2-0.2s0.1-0.2,0.2-0.2h3.1c0.1,0,0.2,0.1,0.2,0.2S24.1,7.3,23.9,7.3z"/>
			</g>
		</g>
	</g>
	<g>
		<path class="st1" d="M18.4,19.8h-3.5c-0.1,0-0.2-0.1-0.2-0.2s0.1-0.2,0.2-0.2h3.5c0.1,0,0.2,0.1,0.2,0.2S18.5,19.8,18.4,19.8z"/>
	</g>
	<g>
		<g>
			<path class="st1" d="M15.4,22.9H9.8c-0.1,0-0.2-0.1-0.2-0.2s0.1-0.2,0.2-0.2h5.6c0.1,0,0.2,0.1,0.2,0.2S15.6,22.9,15.4,22.9z"/>
		</g>
		<g>
			<path class="st1" d="M15.4,25.2H9.8c-0.1,0-0.2-0.1-0.2-0.2s0.1-0.2,0.2-0.2h5.6c0.1,0,0.2,0.1,0.2,0.2S15.6,25.2,15.4,25.2z"/>
		</g>
		<g>
			<path class="st1" d="M23.4,22.9h-5.6c-0.1,0-0.2-0.1-0.2-0.2s0.1-0.2,0.2-0.2h5.6c0.1,0,0.2,0.1,0.2,0.2S23.5,22.9,23.4,22.9z"/>
		</g>
		<g>
			<path class="st1" d="M23.4,25.2h-5.6c-0.1,0-0.2-0.1-0.2-0.2s0.1-0.2,0.2-0.2h5.6c0.1,0,0.2,0.1,0.2,0.2S23.5,25.2,23.4,25.2z"/>
		</g>
	</g>
</g>
</svg>
