<?xml version="1.0" encoding="utf-8"?>
<!-- Generator: Adobe Illustrator 23.0.4, SVG Export Plug-In . SVG Version: 6.00 Build 0)  -->
<svg version="1.1" id="Layer_1" xmlns="http://www.w3.org/2000/svg" xmlns:xlink="http://www.w3.org/1999/xlink" x="0px" y="0px"
	 viewBox="0 0 33.2 33.2" style="enable-background:new 0 0 33.2 33.2;" xml:space="preserve">
<style type="text/css">
	.st0{fill:#BEE9FC;}
	.st1{fill:#FFFFFF;}
	.st2{fill:#FFFFFF;stroke:#000000;stroke-linejoin:round;stroke-miterlimit:10;}
	.st3{fill:#EB5424;}
	.st4{fill:none;stroke:#000000;stroke-linecap:round;stroke-linejoin:round;stroke-miterlimit:10;}
	.st5{fill:#FFFFFF;stroke:#000000;stroke-linecap:round;stroke-linejoin:round;stroke-miterlimit:10;}
	.st6{fill:#FFFFFF;stroke:#444444;stroke-linejoin:round;stroke-miterlimit:10;}
	.st7{fill:none;stroke:#000000;stroke-width:3;stroke-miterlimit:10;}
	.st8{fill:none;stroke:#000000;stroke-width:3;stroke-linejoin:round;stroke-miterlimit:10;}
	.st9{fill:none;stroke:#000000;stroke-width:0.5;stroke-linecap:round;stroke-linejoin:round;stroke-miterlimit:10;}
	.st10{fill:#3445DC;}
	.st11{fill:none;stroke:#EB5424;stroke-linecap:round;stroke-linejoin:round;stroke-miterlimit:10;}
	.st12{fill:none;stroke:#000000;stroke-linejoin:round;stroke-miterlimit:10;}
	.st13{fill:none;stroke:#000000;stroke-linecap:round;stroke-miterlimit:10;}
	.st14{fill:none;stroke:#000000;stroke-width:0.5;stroke-linecap:round;stroke-miterlimit:10;}
	.st15{fill:#FFFFFF;stroke:#FFFFFF;stroke-width:0.5;stroke-linecap:round;stroke-linejoin:round;stroke-miterlimit:10;}
	.st16{fill:#EB5424;stroke:#000000;stroke-linecap:round;stroke-linejoin:round;stroke-miterlimit:10;}
	.st17{fill:#EB5424;stroke:#000000;stroke-miterlimit:10;}
	.st18{fill:none;stroke:#000000;stroke-width:1.5;stroke-miterlimit:10;}
	.st19{fill:none;stroke:#000000;stroke-width:1.5;stroke-linejoin:round;stroke-miterlimit:10;}
	.st20{fill:none;stroke:#FFFFFF;stroke-linecap:round;stroke-linejoin:round;stroke-miterlimit:10;}
	.st21{fill:none;stroke:#000000;stroke-width:0.5;stroke-linejoin:round;stroke-miterlimit:10;}
	.st22{fill:none;stroke:#FFFFFF;stroke-width:0.5;stroke-linecap:round;stroke-linejoin:round;stroke-miterlimit:10;}
	.st23{fill:none;stroke:#EB5424;stroke-width:0.5;stroke-linecap:round;stroke-linejoin:round;stroke-miterlimit:10;}
	.st24{fill:#EB5424;stroke:#000000;stroke-width:0.5;stroke-linecap:round;stroke-linejoin:round;stroke-miterlimit:10;}
	.st25{fill:none;stroke:#000000;stroke-linecap:round;stroke-linejoin:round;stroke-dasharray:0,3.0066;}
	.st26{fill:none;stroke:#000000;stroke-linecap:round;stroke-linejoin:round;stroke-dasharray:0,3.0071;}
	.st27{fill:#FFFFFF;stroke:#444444;stroke-width:1.2;stroke-linejoin:round;stroke-miterlimit:10;}
	.st28{fill:none;stroke:#000000;stroke-width:1.2;stroke-miterlimit:10;}
	.st29{fill:none;stroke:#000000;stroke-width:1.2;stroke-linejoin:round;stroke-miterlimit:10;}
	.st30{clip-path:url(#SVGID_2_);}
	.st31{fill:none;stroke:#000000;stroke-linecap:round;stroke-linejoin:round;stroke-dasharray:0,2.9263;}
	.st32{clip-path:url(#SVGID_4_);}
	.st33{fill:none;stroke:#000000;stroke-linecap:round;stroke-linejoin:round;stroke-dasharray:0,3.0117;}
	.st34{fill:none;stroke:#000000;stroke-width:0.5;stroke-miterlimit:10;}
	.st35{fill:none;stroke:#FFFFFF;stroke-width:0.5;stroke-linejoin:round;stroke-miterlimit:10;}
	.st36{fill:none;stroke:#000000;stroke-width:0.8;stroke-miterlimit:10;}
	.st37{fill:none;stroke:#000000;stroke-width:0.8;stroke-linejoin:round;stroke-miterlimit:10;}
	.st38{fill:none;stroke:#EB5424;stroke-miterlimit:10;}
	.st39{fill:none;stroke:#000000;stroke-miterlimit:10;}
	.st40{fill:none;stroke:#EB5424;stroke-width:0.5;stroke-miterlimit:10;}
	.st41{fill:#FFFDFD;stroke:#EB5424;stroke-linecap:round;stroke-linejoin:round;stroke-miterlimit:10;}
	.st42{fill:none;stroke:#EB5424;stroke-linecap:round;stroke-linejoin:round;stroke-miterlimit:10;stroke-dasharray:2;}
	.st43{fill:#FFFFFF;stroke:#EB5424;stroke-linecap:round;stroke-linejoin:round;stroke-miterlimit:10;}
	
		.st44{fill:none;stroke:#EB5424;stroke-width:0.5;stroke-linecap:round;stroke-linejoin:round;stroke-miterlimit:10;stroke-dasharray:2;}
	.st45{fill:#FFFFFF;stroke:#000000;stroke-width:0.5;stroke-linecap:round;stroke-linejoin:round;stroke-miterlimit:10;}
	.st46{fill:none;stroke:#EB5424;stroke-width:2;stroke-linecap:round;stroke-linejoin:round;stroke-miterlimit:10;}
	.st47{fill:#FFFFFF;stroke:#FFFFFF;stroke-linecap:round;stroke-linejoin:round;stroke-miterlimit:10;}
</style>
<g>
	<g>
		<g>
			<g>
				<g>
					<path class="st1" d="M26.3,27.4H6.9c-0.1,0-0.2-0.1-0.2-0.2v-21c0-0.1,0.1-0.2,0.2-0.2h19.4c0.1,0,0.2,0.1,0.2,0.2v21
						C26.6,27.3,26.5,27.4,26.3,27.4z M7.2,26.9h18.9V6.3H7.2V26.9z"/>
				</g>
				<g>
					<path class="st1" d="M26.3,18.3c-0.1,0-0.2-0.1-0.2-0.2v-7.2H7.2V18c0,0.1-0.1,0.2-0.2,0.2S6.7,18.1,6.7,18v-7.5
						c0-0.1,0.1-0.2,0.2-0.2h19.4c0.1,0,0.2,0.1,0.2,0.2V18C26.6,18.1,26.5,18.3,26.3,18.3z"/>
				</g>
				<g>
					<g>
						<circle class="st1" cx="18.7" cy="8.2" r="0.7"/>
					</g>
					<g>
						<path class="st1" d="M24.3,8.4h-3.2c-0.1,0-0.2-0.1-0.2-0.2s0.1-0.2,0.2-0.2h3.2c0.1,0,0.2,0.1,0.2,0.2S24.5,8.4,24.3,8.4z"/>
					</g>
				</g>
			</g>
		</g>
	</g>
	<g>
		<path class="st3" d="M22.4,18L22.4,18c-0.6-0.2-0.8-0.9-0.4-1.3l0-0.1c0.5-0.6,0-1.5-0.8-1.4l-0.1,0c-0.6,0.1-1.1-0.4-1-1l0-0.1
			c0.1-0.8-0.8-1.3-1.4-0.8l-0.1,0c-0.4,0.4-1.1,0.2-1.3-0.4l0-0.1c-0.3-0.7-1.3-0.7-1.6,0l0,0.1c-0.2,0.5-0.9,0.7-1.3,0.4l-0.1,0
			c-0.6-0.5-1.5,0-1.4,0.8l0,0.1c0.1,0.6-0.4,1.1-1,1l-0.1,0c-0.8-0.1-1.3,0.8-0.8,1.4l0,0.1c0.4,0.4,0.2,1.1-0.4,1.3l-0.1,0
			c-0.7,0.3-0.7,1.3,0,1.6l0.1,0c0.5,0.2,0.7,0.9,0.4,1.3l0,0.1c-0.5,0.6,0,1.5,0.8,1.4l0.1,0c0.6-0.1,1.1,0.4,1,1l0,0.1
			c-0.1,0.8,0.8,1.3,1.4,0.8l0.1,0c0.4-0.4,1.1-0.2,1.3,0.4l0,0.1c0.3,0.7,1.3,0.7,1.6,0l0-0.1c0.2-0.5,0.9-0.7,1.3-0.4l0.1,0
			c0.6,0.5,1.5,0,1.4-0.8l0-0.1c-0.1-0.6,0.4-1.1,1-1l0.1,0c0.8,0.1,1.3-0.8,0.8-1.4l0-0.1c-0.4-0.4-0.2-1.1,0.4-1.3l0.1,0
			C23.1,19.3,23.1,18.3,22.4,18z M16.7,20.8c-1.1,0-2-0.9-2-2s0.9-2,2-2s2,0.9,2,2S17.8,20.8,16.7,20.8z"/>
	</g>
	<g>
		<g>
			<path class="st1" d="M16.7,21.1c-1.3,0-2.3-1-2.3-2.3s1-2.3,2.3-2.3s2.3,1,2.3,2.3S17.9,21.1,16.7,21.1z M16.7,17
				c-1,0-1.8,0.8-1.8,1.8s0.8,1.8,1.8,1.8s1.8-0.8,1.8-1.8S17.6,17,16.7,17z"/>
		</g>
	</g>
	<g>
		<path class="st1" d="M16.7,21.1c-1.3,0-2.3-1-2.3-2.3s1-2.3,2.3-2.3s2.3,1,2.3,2.3S17.9,21.1,16.7,21.1z M16.7,17
			c-1,0-1.8,0.8-1.8,1.8s0.8,1.8,1.8,1.8s1.8-0.8,1.8-1.8S17.6,17,16.7,17z"/>
	</g>
</g>
</svg>
