<?xml version="1.0" encoding="utf-8"?>
<!-- Generator: Adobe Illustrator 23.0.4, SVG Export Plug-In . SVG Version: 6.00 Build 0)  -->
<svg version="1.1" id="Layer_1" xmlns="http://www.w3.org/2000/svg" xmlns:xlink="http://www.w3.org/1999/xlink" x="0px" y="0px"
	 viewBox="0 0 33.2 33.2" style="enable-background:new 0 0 33.2 33.2;" xml:space="preserve">
<style type="text/css">
	.st0{fill:#BEE9FC;}
	.st1{fill:#FFFFFF;}
	.st2{fill:#FFFFFF;stroke:#000000;stroke-linejoin:round;stroke-miterlimit:10;}
	.st3{fill:#EB5424;}
	.st4{fill:none;stroke:#000000;stroke-linecap:round;stroke-linejoin:round;stroke-miterlimit:10;}
	.st5{fill:#FFFFFF;stroke:#000000;stroke-linecap:round;stroke-linejoin:round;stroke-miterlimit:10;}
	.st6{fill:#FFFFFF;stroke:#444444;stroke-linejoin:round;stroke-miterlimit:10;}
	.st7{fill:none;stroke:#000000;stroke-width:3;stroke-miterlimit:10;}
	.st8{fill:none;stroke:#000000;stroke-width:3;stroke-linejoin:round;stroke-miterlimit:10;}
	.st9{fill:none;stroke:#000000;stroke-width:0.5;stroke-linecap:round;stroke-linejoin:round;stroke-miterlimit:10;}
	.st10{fill:#3445DC;}
	.st11{fill:none;stroke:#EB5424;stroke-linecap:round;stroke-linejoin:round;stroke-miterlimit:10;}
	.st12{fill:none;stroke:#000000;stroke-linejoin:round;stroke-miterlimit:10;}
	.st13{fill:none;stroke:#000000;stroke-linecap:round;stroke-miterlimit:10;}
	.st14{fill:none;stroke:#000000;stroke-width:0.5;stroke-linecap:round;stroke-miterlimit:10;}
	.st15{fill:#FFFFFF;stroke:#FFFFFF;stroke-width:0.5;stroke-linecap:round;stroke-linejoin:round;stroke-miterlimit:10;}
	.st16{fill:#EB5424;stroke:#000000;stroke-linecap:round;stroke-linejoin:round;stroke-miterlimit:10;}
	.st17{fill:#EB5424;stroke:#000000;stroke-miterlimit:10;}
	.st18{fill:none;stroke:#000000;stroke-width:1.5;stroke-miterlimit:10;}
	.st19{fill:none;stroke:#000000;stroke-width:1.5;stroke-linejoin:round;stroke-miterlimit:10;}
	.st20{fill:none;stroke:#FFFFFF;stroke-linecap:round;stroke-linejoin:round;stroke-miterlimit:10;}
	.st21{fill:none;stroke:#000000;stroke-width:0.5;stroke-linejoin:round;stroke-miterlimit:10;}
	.st22{fill:none;stroke:#FFFFFF;stroke-width:0.5;stroke-linecap:round;stroke-linejoin:round;stroke-miterlimit:10;}
	.st23{fill:none;stroke:#EB5424;stroke-width:0.5;stroke-linecap:round;stroke-linejoin:round;stroke-miterlimit:10;}
	.st24{fill:#EB5424;stroke:#000000;stroke-width:0.5;stroke-linecap:round;stroke-linejoin:round;stroke-miterlimit:10;}
	.st25{fill:none;stroke:#000000;stroke-linecap:round;stroke-linejoin:round;stroke-dasharray:0,3.0066;}
	.st26{fill:none;stroke:#000000;stroke-linecap:round;stroke-linejoin:round;stroke-dasharray:0,3.0071;}
	.st27{fill:#FFFFFF;stroke:#444444;stroke-width:1.2;stroke-linejoin:round;stroke-miterlimit:10;}
	.st28{fill:none;stroke:#000000;stroke-width:1.2;stroke-miterlimit:10;}
	.st29{fill:none;stroke:#000000;stroke-width:1.2;stroke-linejoin:round;stroke-miterlimit:10;}
	.st30{clip-path:url(#SVGID_2_);}
	.st31{fill:none;stroke:#000000;stroke-linecap:round;stroke-linejoin:round;stroke-dasharray:0,2.9263;}
	.st32{clip-path:url(#SVGID_4_);}
	.st33{fill:none;stroke:#000000;stroke-linecap:round;stroke-linejoin:round;stroke-dasharray:0,3.0117;}
	.st34{fill:none;stroke:#000000;stroke-width:0.5;stroke-miterlimit:10;}
	.st35{fill:none;stroke:#FFFFFF;stroke-width:0.5;stroke-linejoin:round;stroke-miterlimit:10;}
	.st36{fill:none;stroke:#000000;stroke-width:0.8;stroke-miterlimit:10;}
	.st37{fill:none;stroke:#000000;stroke-width:0.8;stroke-linejoin:round;stroke-miterlimit:10;}
	.st38{fill:none;stroke:#EB5424;stroke-miterlimit:10;}
	.st39{fill:none;stroke:#000000;stroke-miterlimit:10;}
	.st40{fill:none;stroke:#EB5424;stroke-width:0.5;stroke-miterlimit:10;}
	.st41{fill:#FFFDFD;stroke:#EB5424;stroke-linecap:round;stroke-linejoin:round;stroke-miterlimit:10;}
	.st42{fill:none;stroke:#EB5424;stroke-linecap:round;stroke-linejoin:round;stroke-miterlimit:10;stroke-dasharray:2;}
	.st43{fill:#FFFFFF;stroke:#EB5424;stroke-linecap:round;stroke-linejoin:round;stroke-miterlimit:10;}
	
		.st44{fill:none;stroke:#EB5424;stroke-width:0.5;stroke-linecap:round;stroke-linejoin:round;stroke-miterlimit:10;stroke-dasharray:2;}
	.st45{fill:#FFFFFF;stroke:#000000;stroke-width:0.5;stroke-linecap:round;stroke-linejoin:round;stroke-miterlimit:10;}
	.st46{fill:none;stroke:#EB5424;stroke-width:2;stroke-linecap:round;stroke-linejoin:round;stroke-miterlimit:10;}
	.st47{fill:#FFFFFF;stroke:#FFFFFF;stroke-linecap:round;stroke-linejoin:round;stroke-miterlimit:10;}
</style>
<g>
	<g>
		<g>
			<path class="st3" d="M19.3,14.9l-0.2-0.6H9.9v9.4h13.6v-8.7H19.3z M18.5,20.9l-1.7,1.2l-1.7-1.2c-1-0.7-1.4-2-1-3.1l0.6-1.9h2h2
				l0.6,1.9C19.9,18.9,19.5,20.2,18.5,20.9z"/>
		</g>
		<g>
			<polygon class="st3" points="19.5,17.7 17.5,17.7 16.9,15.8 16.2,17.7 14.2,17.7 15.8,18.9 15.2,20.9 16.9,19.7 18.5,20.9 
				17.9,18.9 			"/>
		</g>
	</g>
	<g>
		<path class="st1" d="M23.6,23.9H9.9c-0.1,0-0.2-0.1-0.2-0.2v-9.4c0-0.1,0.1-0.2,0.2-0.2h9.2c0.1,0,0.2,0.1,0.2,0.2l0.1,0.5h4.1
			c0.1,0,0.2,0.1,0.2,0.2v8.7C23.8,23.8,23.7,23.9,23.6,23.9z M10.2,23.4h13.1v-8.2h-4c-0.1,0-0.2-0.1-0.2-0.2l-0.1-0.5h-8.7V23.4z"
			/>
	</g>
	<g>
		<g>
			<g>
				<g>
					<g>
						<path class="st1" d="M19.1,14.5H8.6c-0.1,0-0.2-0.1-0.2-0.2V9.8c0-0.1,0.1-0.2,0.2-0.2h9c0.1,0,0.2,0.1,0.2,0.2
							S17.8,10,17.6,10H8.9v4h10.2c0.1,0,0.2,0.1,0.2,0.2S19.2,14.5,19.1,14.5z"/>
					</g>
					<g>
						<path class="st1" d="M24.9,28.4H8.6c-0.1,0-0.2-0.1-0.2-0.2v-4.5c0-0.1,0.1-0.2,0.2-0.2h16.3c0.1,0,0.2,0.1,0.2,0.2v4.5
							C25.1,28.3,25,28.4,24.9,28.4z M8.9,27.9h15.8v-4H8.9V27.9z"/>
					</g>
				</g>
				<g>
					<path class="st1" d="M8.1,26.4H5.5c-0.1,0-0.2-0.1-0.2-0.2s0.1-0.2,0.2-0.2h2.7c0.1,0,0.2,0.1,0.2,0.2S8.3,26.4,8.1,26.4z"/>
				</g>
				<g>
					<path class="st1" d="M27.8,26.4h-2.7c-0.1,0-0.2-0.1-0.2-0.2s0.1-0.2,0.2-0.2h2.7c0.1,0,0.2,0.1,0.2,0.2S27.9,26.4,27.8,26.4z"
						/>
				</g>
				<g>
					<rect x="7.3" y="25.3" class="st1" width="1" height="1.8"/>
				</g>
				<g>
					<rect x="25.1" y="25.3" class="st1" width="1" height="1.8"/>
				</g>
				<g>
					<path class="st3" d="M22.4,26.2h-5.7c-0.1,0-0.2-0.1-0.2-0.2s0.1-0.2,0.2-0.2h5.7c0.1,0,0.2,0.1,0.2,0.2S22.6,26.2,22.4,26.2z"
						/>
				</g>
				<g>
					<path class="st3" d="M18.3,12.2h-1.8c-0.1,0-0.2-0.1-0.2-0.2s0.1-0.2,0.2-0.2h1.8c0.1,0,0.2,0.1,0.2,0.2S18.5,12.2,18.3,12.2z"
						/>
				</g>
				<g>
					<circle class="st1" cx="14" cy="12" r="0.6"/>
				</g>
				<g>
					<circle class="st1" cx="14" cy="25.8" r="0.6"/>
				</g>
			</g>
		</g>
		<g>
			<g>
				<path class="st1" d="M25.6,15.1h-6.3c-0.1,0-0.2-0.1-0.2-0.2l-2-6c0-0.1,0-0.2,0.1-0.3l5.1-3.7c0.1-0.1,0.2-0.1,0.3,0l5.1,3.7
					c0.1,0.1,0.1,0.2,0.1,0.3l-2,6C25.9,15.1,25.8,15.1,25.6,15.1z M19.5,14.6h6L27.3,9l-4.8-3.5L17.6,9L19.5,14.6z"/>
			</g>
			<g>
				<g>
					<polygon class="st3" points="22.5,7.2 19.2,9.5 20.5,13.3 24.5,13.3 25.7,9.5 					"/>
				</g>
			</g>
		</g>
	</g>
</g>
</svg>
