<?xml version="1.0" encoding="utf-8"?>
<!-- Generator: Adobe Illustrator 23.0.4, SVG Export Plug-In . SVG Version: 6.00 Build 0)  -->
<svg version="1.1" id="Layer_1" xmlns="http://www.w3.org/2000/svg" xmlns:xlink="http://www.w3.org/1999/xlink" x="0px" y="0px"
	 viewBox="0 0 33.2 33.2" style="enable-background:new 0 0 33.2 33.2;" xml:space="preserve">
<style type="text/css">
	.st0{fill:#BEE9FC;}
	.st1{fill:#FFFFFF;}
	.st2{fill:#FFFFFF;stroke:#000000;stroke-linejoin:round;stroke-miterlimit:10;}
	.st3{fill:#EB5424;}
	.st4{fill:none;stroke:#000000;stroke-linecap:round;stroke-linejoin:round;stroke-miterlimit:10;}
	.st5{fill:#FFFFFF;stroke:#000000;stroke-linecap:round;stroke-linejoin:round;stroke-miterlimit:10;}
	.st6{fill:#FFFFFF;stroke:#444444;stroke-linejoin:round;stroke-miterlimit:10;}
	.st7{fill:none;stroke:#000000;stroke-width:3;stroke-miterlimit:10;}
	.st8{fill:none;stroke:#000000;stroke-width:3;stroke-linejoin:round;stroke-miterlimit:10;}
	.st9{fill:none;stroke:#000000;stroke-width:0.5;stroke-linecap:round;stroke-linejoin:round;stroke-miterlimit:10;}
	.st10{fill:#3445DC;}
	.st11{fill:none;stroke:#EB5424;stroke-linecap:round;stroke-linejoin:round;stroke-miterlimit:10;}
	.st12{fill:none;stroke:#000000;stroke-linejoin:round;stroke-miterlimit:10;}
	.st13{fill:none;stroke:#000000;stroke-linecap:round;stroke-miterlimit:10;}
	.st14{fill:none;stroke:#000000;stroke-width:0.5;stroke-linecap:round;stroke-miterlimit:10;}
	.st15{fill:#FFFFFF;stroke:#FFFFFF;stroke-width:0.5;stroke-linecap:round;stroke-linejoin:round;stroke-miterlimit:10;}
	.st16{fill:#EB5424;stroke:#000000;stroke-linecap:round;stroke-linejoin:round;stroke-miterlimit:10;}
	.st17{fill:#EB5424;stroke:#000000;stroke-miterlimit:10;}
	.st18{fill:none;stroke:#000000;stroke-width:1.5;stroke-miterlimit:10;}
	.st19{fill:none;stroke:#000000;stroke-width:1.5;stroke-linejoin:round;stroke-miterlimit:10;}
	.st20{fill:none;stroke:#FFFFFF;stroke-linecap:round;stroke-linejoin:round;stroke-miterlimit:10;}
	.st21{fill:none;stroke:#000000;stroke-width:0.5;stroke-linejoin:round;stroke-miterlimit:10;}
	.st22{fill:none;stroke:#FFFFFF;stroke-width:0.5;stroke-linecap:round;stroke-linejoin:round;stroke-miterlimit:10;}
	.st23{fill:none;stroke:#EB5424;stroke-width:0.5;stroke-linecap:round;stroke-linejoin:round;stroke-miterlimit:10;}
	.st24{fill:#EB5424;stroke:#000000;stroke-width:0.5;stroke-linecap:round;stroke-linejoin:round;stroke-miterlimit:10;}
	.st25{fill:none;stroke:#000000;stroke-linecap:round;stroke-linejoin:round;stroke-dasharray:0,3.0066;}
	.st26{fill:none;stroke:#000000;stroke-linecap:round;stroke-linejoin:round;stroke-dasharray:0,3.0071;}
	.st27{fill:#FFFFFF;stroke:#444444;stroke-width:1.2;stroke-linejoin:round;stroke-miterlimit:10;}
	.st28{fill:none;stroke:#000000;stroke-width:1.2;stroke-miterlimit:10;}
	.st29{fill:none;stroke:#000000;stroke-width:1.2;stroke-linejoin:round;stroke-miterlimit:10;}
	.st30{clip-path:url(#SVGID_2_);}
	.st31{fill:none;stroke:#000000;stroke-linecap:round;stroke-linejoin:round;stroke-dasharray:0,2.9263;}
	.st32{clip-path:url(#SVGID_4_);}
	.st33{fill:none;stroke:#000000;stroke-linecap:round;stroke-linejoin:round;stroke-dasharray:0,3.0117;}
	.st34{fill:none;stroke:#000000;stroke-width:0.5;stroke-miterlimit:10;}
	.st35{fill:none;stroke:#FFFFFF;stroke-width:0.5;stroke-linejoin:round;stroke-miterlimit:10;}
	.st36{fill:none;stroke:#000000;stroke-width:0.8;stroke-miterlimit:10;}
	.st37{fill:none;stroke:#000000;stroke-width:0.8;stroke-linejoin:round;stroke-miterlimit:10;}
	.st38{fill:none;stroke:#EB5424;stroke-miterlimit:10;}
	.st39{fill:none;stroke:#000000;stroke-miterlimit:10;}
	.st40{fill:none;stroke:#EB5424;stroke-width:0.5;stroke-miterlimit:10;}
	.st41{fill:#FFFDFD;stroke:#EB5424;stroke-linecap:round;stroke-linejoin:round;stroke-miterlimit:10;}
	.st42{fill:none;stroke:#EB5424;stroke-linecap:round;stroke-linejoin:round;stroke-miterlimit:10;stroke-dasharray:2;}
	.st43{fill:#FFFFFF;stroke:#EB5424;stroke-linecap:round;stroke-linejoin:round;stroke-miterlimit:10;}
	
		.st44{fill:none;stroke:#EB5424;stroke-width:0.5;stroke-linecap:round;stroke-linejoin:round;stroke-miterlimit:10;stroke-dasharray:2;}
	.st45{fill:#FFFFFF;stroke:#000000;stroke-width:0.5;stroke-linecap:round;stroke-linejoin:round;stroke-miterlimit:10;}
	.st46{fill:none;stroke:#EB5424;stroke-width:2;stroke-linecap:round;stroke-linejoin:round;stroke-miterlimit:10;}
	.st47{fill:#FFFFFF;stroke:#FFFFFF;stroke-linecap:round;stroke-linejoin:round;stroke-miterlimit:10;}
</style>
<g>
	<g>
		<path class="st1" d="M24.8,27.6H8.4c-0.1,0-0.2-0.1-0.2-0.2V5.9c0-0.1,0.1-0.2,0.2-0.2h16.4c0.1,0,0.2,0.1,0.2,0.2v21.5
			C25.1,27.5,25,27.6,24.8,27.6z M8.7,27.1h15.9v-21H8.7V27.1z"/>
	</g>
	<g>
		<path class="st1" d="M16.6,10.7h-5.5c-0.1,0-0.2-0.1-0.2-0.2s0.1-0.2,0.2-0.2h5.5c0.1,0,0.2,0.1,0.2,0.2S16.8,10.7,16.6,10.7z"/>
	</g>
	<g>
		<path class="st3" d="M21.3,10.7h-2.2c-0.1,0-0.2-0.1-0.2-0.2s0.1-0.2,0.2-0.2h2.2c0.1,0,0.2,0.1,0.2,0.2S21.4,10.7,21.3,10.7z"/>
	</g>
	<g>
		<path class="st1" d="M16.6,13.7h-5.5c-0.1,0-0.2-0.1-0.2-0.2s0.1-0.2,0.2-0.2h5.5c0.1,0,0.2,0.1,0.2,0.2S16.8,13.7,16.6,13.7z"/>
	</g>
	<g>
		<path class="st3" d="M22.3,13.7h-3.2c-0.1,0-0.2-0.1-0.2-0.2s0.1-0.2,0.2-0.2h3.2c0.1,0,0.2,0.1,0.2,0.2S22.4,13.7,22.3,13.7z"/>
	</g>
	<g>
		<path class="st1" d="M16.6,16.7h-5.5c-0.1,0-0.2-0.1-0.2-0.2s0.1-0.2,0.2-0.2h5.5c0.1,0,0.2,0.1,0.2,0.2S16.8,16.7,16.6,16.7z"/>
	</g>
	<g>
		<path class="st3" d="M20.3,16.7h-1.2c-0.1,0-0.2-0.1-0.2-0.2s0.1-0.2,0.2-0.2h1.2c0.1,0,0.2,0.1,0.2,0.2S20.4,16.7,20.3,16.7z"/>
	</g>
	<g>
		<path class="st1" d="M16.6,19.7h-5.5c-0.1,0-0.2-0.1-0.2-0.2s0.1-0.2,0.2-0.2h5.5c0.1,0,0.2,0.1,0.2,0.2S16.8,19.7,16.6,19.7z"/>
	</g>
	<g>
		<path class="st3" d="M22.3,19.7h-3.2c-0.1,0-0.2-0.1-0.2-0.2s0.1-0.2,0.2-0.2h3.2c0.1,0,0.2,0.1,0.2,0.2S22.4,19.7,22.3,19.7z"/>
	</g>
	<g>
		<path class="st1" d="M16.6,22.7h-5.5c-0.1,0-0.2-0.1-0.2-0.2s0.1-0.2,0.2-0.2h5.5c0.1,0,0.2,0.1,0.2,0.2S16.8,22.7,16.6,22.7z"/>
	</g>
	<g>
		<path class="st3" d="M19.3,22.7h-0.2c-0.1,0-0.2-0.1-0.2-0.2s0.1-0.2,0.2-0.2h0.2c0.1,0,0.2,0.1,0.2,0.2S19.4,22.7,19.3,22.7z"/>
	</g>
</g>
</svg>
