<?xml version="1.0" encoding="utf-8"?>
<!-- Generator: Adobe Illustrator 23.0.4, SVG Export Plug-In . SVG Version: 6.00 Build 0)  -->
<svg version="1.1" id="Layer_1" xmlns="http://www.w3.org/2000/svg" xmlns:xlink="http://www.w3.org/1999/xlink" x="0px" y="0px"
	 viewBox="0 0 33.2 33.2" style="enable-background:new 0 0 33.2 33.2;" xml:space="preserve">
<style type="text/css">
	.st0{fill:#BEE9FC;}
	.st1{fill:#FFFFFF;}
	.st2{fill:#FFFFFF;stroke:#000000;stroke-linejoin:round;stroke-miterlimit:10;}
	.st3{fill:#EB5424;}
	.st4{fill:none;stroke:#000000;stroke-linecap:round;stroke-linejoin:round;stroke-miterlimit:10;}
	.st5{fill:#FFFFFF;stroke:#000000;stroke-linecap:round;stroke-linejoin:round;stroke-miterlimit:10;}
	.st6{fill:#FFFFFF;stroke:#444444;stroke-linejoin:round;stroke-miterlimit:10;}
	.st7{fill:none;stroke:#000000;stroke-width:3;stroke-miterlimit:10;}
	.st8{fill:none;stroke:#000000;stroke-width:3;stroke-linejoin:round;stroke-miterlimit:10;}
	.st9{fill:none;stroke:#000000;stroke-width:0.5;stroke-linecap:round;stroke-linejoin:round;stroke-miterlimit:10;}
	.st10{fill:#3445DC;}
	.st11{fill:none;stroke:#EB5424;stroke-linecap:round;stroke-linejoin:round;stroke-miterlimit:10;}
	.st12{fill:none;stroke:#000000;stroke-linejoin:round;stroke-miterlimit:10;}
	.st13{fill:none;stroke:#000000;stroke-linecap:round;stroke-miterlimit:10;}
	.st14{fill:none;stroke:#000000;stroke-width:0.5;stroke-linecap:round;stroke-miterlimit:10;}
	.st15{fill:#FFFFFF;stroke:#FFFFFF;stroke-width:0.5;stroke-linecap:round;stroke-linejoin:round;stroke-miterlimit:10;}
	.st16{fill:#EB5424;stroke:#000000;stroke-linecap:round;stroke-linejoin:round;stroke-miterlimit:10;}
	.st17{fill:#EB5424;stroke:#000000;stroke-miterlimit:10;}
	.st18{fill:none;stroke:#000000;stroke-width:1.5;stroke-miterlimit:10;}
	.st19{fill:none;stroke:#000000;stroke-width:1.5;stroke-linejoin:round;stroke-miterlimit:10;}
	.st20{fill:none;stroke:#FFFFFF;stroke-linecap:round;stroke-linejoin:round;stroke-miterlimit:10;}
	.st21{fill:none;stroke:#000000;stroke-width:0.5;stroke-linejoin:round;stroke-miterlimit:10;}
	.st22{fill:none;stroke:#FFFFFF;stroke-width:0.5;stroke-linecap:round;stroke-linejoin:round;stroke-miterlimit:10;}
	.st23{fill:none;stroke:#EB5424;stroke-width:0.5;stroke-linecap:round;stroke-linejoin:round;stroke-miterlimit:10;}
	.st24{fill:#EB5424;stroke:#000000;stroke-width:0.5;stroke-linecap:round;stroke-linejoin:round;stroke-miterlimit:10;}
	.st25{fill:none;stroke:#000000;stroke-linecap:round;stroke-linejoin:round;stroke-dasharray:0,3.0066;}
	.st26{fill:none;stroke:#000000;stroke-linecap:round;stroke-linejoin:round;stroke-dasharray:0,3.0071;}
	.st27{fill:#FFFFFF;stroke:#444444;stroke-width:1.2;stroke-linejoin:round;stroke-miterlimit:10;}
	.st28{fill:none;stroke:#000000;stroke-width:1.2;stroke-miterlimit:10;}
	.st29{fill:none;stroke:#000000;stroke-width:1.2;stroke-linejoin:round;stroke-miterlimit:10;}
	.st30{clip-path:url(#SVGID_2_);}
	.st31{fill:none;stroke:#000000;stroke-linecap:round;stroke-linejoin:round;stroke-dasharray:0,2.9263;}
	.st32{clip-path:url(#SVGID_4_);}
	.st33{fill:none;stroke:#000000;stroke-linecap:round;stroke-linejoin:round;stroke-dasharray:0,3.0117;}
	.st34{fill:none;stroke:#000000;stroke-width:0.5;stroke-miterlimit:10;}
	.st35{fill:none;stroke:#FFFFFF;stroke-width:0.5;stroke-linejoin:round;stroke-miterlimit:10;}
	.st36{fill:none;stroke:#000000;stroke-width:0.8;stroke-miterlimit:10;}
	.st37{fill:none;stroke:#000000;stroke-width:0.8;stroke-linejoin:round;stroke-miterlimit:10;}
	.st38{fill:none;stroke:#EB5424;stroke-miterlimit:10;}
	.st39{fill:none;stroke:#000000;stroke-miterlimit:10;}
	.st40{fill:none;stroke:#EB5424;stroke-width:0.5;stroke-miterlimit:10;}
	.st41{fill:#FFFDFD;stroke:#EB5424;stroke-linecap:round;stroke-linejoin:round;stroke-miterlimit:10;}
	.st42{fill:none;stroke:#EB5424;stroke-linecap:round;stroke-linejoin:round;stroke-miterlimit:10;stroke-dasharray:2;}
	.st43{fill:#FFFFFF;stroke:#EB5424;stroke-linecap:round;stroke-linejoin:round;stroke-miterlimit:10;}
	
		.st44{fill:none;stroke:#EB5424;stroke-width:0.5;stroke-linecap:round;stroke-linejoin:round;stroke-miterlimit:10;stroke-dasharray:2;}
	.st45{fill:#FFFFFF;stroke:#000000;stroke-width:0.5;stroke-linecap:round;stroke-linejoin:round;stroke-miterlimit:10;}
	.st46{fill:none;stroke:#EB5424;stroke-width:2;stroke-linecap:round;stroke-linejoin:round;stroke-miterlimit:10;}
	.st47{fill:#FFFFFF;stroke:#FFFFFF;stroke-linecap:round;stroke-linejoin:round;stroke-miterlimit:10;}
</style>
<g>
	<g>
		<path class="st1" d="M21.9,29.2H11.4c-1.1,0-1.9-0.9-1.9-1.9V6c0-1.1,0.9-1.9,1.9-1.9h10.5c1.1,0,1.9,0.9,1.9,1.9v21.2
			C23.8,28.3,23,29.2,21.9,29.2z M11.4,4.6c-0.8,0-1.4,0.6-1.4,1.4v21.2c0,0.8,0.6,1.4,1.4,1.4h10.5c0.8,0,1.4-0.6,1.4-1.4V6
			c0-0.8-0.6-1.4-1.4-1.4H11.4z"/>
	</g>
	<g>
		<path class="st1" d="M23.2,8.5H10.1c-0.1,0-0.2-0.1-0.2-0.2S10,8,10.1,8h13.1c0.1,0,0.2,0.1,0.2,0.2S23.3,8.5,23.2,8.5z"/>
	</g>
	<g>
		<path class="st1" d="M18.3,6.5h-3.4c-0.1,0-0.2-0.1-0.2-0.2S14.8,6,14.9,6h3.4c0.1,0,0.2,0.1,0.2,0.2S18.5,6.5,18.3,6.5z"/>
	</g>
	<g>
		<path class="st1" d="M23.4,24.6H9.9c-0.1,0-0.2-0.1-0.2-0.2s0.1-0.2,0.2-0.2h13.5c0.1,0,0.2,0.1,0.2,0.2S23.5,24.6,23.4,24.6z"/>
	</g>
	<g>
		<g>
			<circle class="st3" cx="16.6" cy="26.7" r="1"/>
		</g>
	</g>
	<g>
		<path class="st3" d="M21.5,16L21.5,16c-0.5-0.2-0.7-0.8-0.4-1.2l0,0c0.4-0.5,0-1.3-0.7-1.2l-0.1,0c-0.5,0.1-0.9-0.3-0.8-0.8l0-0.1
			c0.1-0.7-0.7-1.1-1.2-0.7l0,0c-0.4,0.3-1,0.2-1.1-0.3l0-0.1c-0.2-0.6-1.1-0.6-1.3,0l0,0.1c-0.2,0.5-0.8,0.6-1.1,0.3l0,0
			c-0.5-0.4-1.3,0-1.2,0.7l0,0.1c0.1,0.5-0.3,0.9-0.8,0.8l-0.1,0c-0.7-0.1-1.1,0.7-0.7,1.2l0,0c0.3,0.4,0.2,1-0.3,1.1l-0.1,0
			c-0.6,0.2-0.6,1.1,0,1.3l0.1,0c0.5,0.2,0.6,0.8,0.3,1.1l0,0c-0.4,0.5,0,1.3,0.7,1.2l0.1,0c0.5-0.1,0.9,0.3,0.8,0.8l0,0.1
			c-0.1,0.7,0.7,1.1,1.2,0.7l0,0c0.4-0.3,1-0.2,1.1,0.3l0,0.1c0.2,0.6,1.1,0.6,1.3,0l0-0.1c0.2-0.5,0.8-0.6,1.1-0.3l0,0
			c0.5,0.4,1.3,0,1.2-0.7l0-0.1c-0.1-0.5,0.3-0.9,0.8-0.8l0.1,0c0.7,0.1,1.1-0.7,0.7-1.2l0,0c-0.3-0.4-0.2-1,0.3-1.1l0.1,0
			C22.1,17.1,22.1,16.2,21.5,16z M16.6,18.4c-1,0-1.7-0.8-1.7-1.7c0-1,0.8-1.7,1.7-1.7s1.7,0.8,1.7,1.7
			C18.3,17.6,17.5,18.4,16.6,18.4z"/>
	</g>
	<g>
		<g>
			<path d="M16.6,18.6c-1.1,0-2-0.9-2-2s0.9-2,2-2s2,0.9,2,2S17.6,18.6,16.6,18.6z M16.6,15.1c-0.8,0-1.5,0.7-1.5,1.5
				c0,0.8,0.7,1.5,1.5,1.5c0.8,0,1.5-0.7,1.5-1.5C18,15.8,17.4,15.1,16.6,15.1z"/>
		</g>
	</g>
	<g>
		<path class="st1" d="M16.6,18.6c-1.1,0-2-0.9-2-2s0.9-2,2-2s2,0.9,2,2S17.6,18.6,16.6,18.6z M16.6,15.1c-0.8,0-1.5,0.7-1.5,1.5
			c0,0.8,0.7,1.5,1.5,1.5c0.8,0,1.5-0.7,1.5-1.5C18,15.8,17.4,15.1,16.6,15.1z"/>
	</g>
</g>
</svg>
