<?xml version="1.0" encoding="utf-8"?>
<!-- Generator: Adobe Illustrator 23.0.4, SVG Export Plug-In . SVG Version: 6.00 Build 0)  -->
<svg version="1.1" id="Layer_1" xmlns="http://www.w3.org/2000/svg" xmlns:xlink="http://www.w3.org/1999/xlink" x="0px" y="0px"
	 viewBox="0 0 33.2 33.2" style="enable-background:new 0 0 33.2 33.2;" xml:space="preserve">
<style type="text/css">
	.st0{fill:#BEE9FC;}
	.st1{fill:#FFFFFF;}
	.st2{fill:#FFFFFF;stroke:#000000;stroke-linejoin:round;stroke-miterlimit:10;}
	.st3{fill:#EB5424;}
	.st4{fill:none;stroke:#000000;stroke-linecap:round;stroke-linejoin:round;stroke-miterlimit:10;}
	.st5{fill:#FFFFFF;stroke:#000000;stroke-linecap:round;stroke-linejoin:round;stroke-miterlimit:10;}
	.st6{fill:#FFFFFF;stroke:#444444;stroke-linejoin:round;stroke-miterlimit:10;}
	.st7{fill:none;stroke:#000000;stroke-width:3;stroke-miterlimit:10;}
	.st8{fill:none;stroke:#000000;stroke-width:3;stroke-linejoin:round;stroke-miterlimit:10;}
	.st9{fill:none;stroke:#000000;stroke-width:0.5;stroke-linecap:round;stroke-linejoin:round;stroke-miterlimit:10;}
	.st10{fill:#3445DC;}
	.st11{fill:none;stroke:#EB5424;stroke-linecap:round;stroke-linejoin:round;stroke-miterlimit:10;}
	.st12{fill:none;stroke:#000000;stroke-linejoin:round;stroke-miterlimit:10;}
	.st13{fill:none;stroke:#000000;stroke-linecap:round;stroke-miterlimit:10;}
	.st14{fill:none;stroke:#000000;stroke-width:0.5;stroke-linecap:round;stroke-miterlimit:10;}
	.st15{fill:#FFFFFF;stroke:#FFFFFF;stroke-width:0.5;stroke-linecap:round;stroke-linejoin:round;stroke-miterlimit:10;}
	.st16{fill:#EB5424;stroke:#000000;stroke-linecap:round;stroke-linejoin:round;stroke-miterlimit:10;}
	.st17{fill:#EB5424;stroke:#000000;stroke-miterlimit:10;}
	.st18{fill:none;stroke:#000000;stroke-width:1.5;stroke-miterlimit:10;}
	.st19{fill:none;stroke:#000000;stroke-width:1.5;stroke-linejoin:round;stroke-miterlimit:10;}
	.st20{fill:none;stroke:#FFFFFF;stroke-linecap:round;stroke-linejoin:round;stroke-miterlimit:10;}
	.st21{fill:none;stroke:#000000;stroke-width:0.5;stroke-linejoin:round;stroke-miterlimit:10;}
	.st22{fill:none;stroke:#FFFFFF;stroke-width:0.5;stroke-linecap:round;stroke-linejoin:round;stroke-miterlimit:10;}
	.st23{fill:none;stroke:#EB5424;stroke-width:0.5;stroke-linecap:round;stroke-linejoin:round;stroke-miterlimit:10;}
	.st24{fill:#EB5424;stroke:#000000;stroke-width:0.5;stroke-linecap:round;stroke-linejoin:round;stroke-miterlimit:10;}
	.st25{fill:none;stroke:#000000;stroke-linecap:round;stroke-linejoin:round;stroke-dasharray:0,3.0066;}
	.st26{fill:none;stroke:#000000;stroke-linecap:round;stroke-linejoin:round;stroke-dasharray:0,3.0071;}
	.st27{fill:#FFFFFF;stroke:#444444;stroke-width:1.2;stroke-linejoin:round;stroke-miterlimit:10;}
	.st28{fill:none;stroke:#000000;stroke-width:1.2;stroke-miterlimit:10;}
	.st29{fill:none;stroke:#000000;stroke-width:1.2;stroke-linejoin:round;stroke-miterlimit:10;}
	.st30{clip-path:url(#SVGID_2_);}
	.st31{fill:none;stroke:#000000;stroke-linecap:round;stroke-linejoin:round;stroke-dasharray:0,2.9263;}
	.st32{clip-path:url(#SVGID_4_);}
	.st33{fill:none;stroke:#000000;stroke-linecap:round;stroke-linejoin:round;stroke-dasharray:0,3.0117;}
	.st34{fill:none;stroke:#000000;stroke-width:0.5;stroke-miterlimit:10;}
	.st35{fill:none;stroke:#FFFFFF;stroke-width:0.5;stroke-linejoin:round;stroke-miterlimit:10;}
	.st36{fill:none;stroke:#000000;stroke-width:0.8;stroke-miterlimit:10;}
	.st37{fill:none;stroke:#000000;stroke-width:0.8;stroke-linejoin:round;stroke-miterlimit:10;}
	.st38{fill:none;stroke:#EB5424;stroke-miterlimit:10;}
	.st39{fill:none;stroke:#000000;stroke-miterlimit:10;}
	.st40{fill:none;stroke:#EB5424;stroke-width:0.5;stroke-miterlimit:10;}
	.st41{fill:#FFFDFD;stroke:#EB5424;stroke-linecap:round;stroke-linejoin:round;stroke-miterlimit:10;}
	.st42{fill:none;stroke:#EB5424;stroke-linecap:round;stroke-linejoin:round;stroke-miterlimit:10;stroke-dasharray:2;}
	.st43{fill:#FFFFFF;stroke:#EB5424;stroke-linecap:round;stroke-linejoin:round;stroke-miterlimit:10;}
	
		.st44{fill:none;stroke:#EB5424;stroke-width:0.5;stroke-linecap:round;stroke-linejoin:round;stroke-miterlimit:10;stroke-dasharray:2;}
	.st45{fill:#FFFFFF;stroke:#000000;stroke-width:0.5;stroke-linecap:round;stroke-linejoin:round;stroke-miterlimit:10;}
	.st46{fill:none;stroke:#EB5424;stroke-width:2;stroke-linecap:round;stroke-linejoin:round;stroke-miterlimit:10;}
	.st47{fill:#FFFFFF;stroke:#FFFFFF;stroke-linecap:round;stroke-linejoin:round;stroke-miterlimit:10;}
</style>
<g>
	<g>
		<path class="st1" d="M16.6,27.4c-4.7,0-9.8-0.9-9.8-2.5V8.4c0-0.1,0.1-0.2,0.2-0.2s0.2,0.1,0.2,0.2v16.4c0,0.8,3.5,2,9.3,2
			c5.7,0,9.3-1.2,9.3-2V8.4c0-0.1,0.1-0.2,0.2-0.2s0.2,0.1,0.2,0.2v16.4C26.4,26.5,21.4,27.4,16.6,27.4z"/>
	</g>
	<g>
		<ellipse class="st3" cx="16.6" cy="8.4" rx="9.5" ry="2.3"/>
		<path class="st1" d="M16.6,10.9c-4.7,0-9.8-0.9-9.8-2.5c0-1.6,5-2.5,9.8-2.5s9.8,0.9,9.8,2.5C26.4,10,21.4,10.9,16.6,10.9z
			 M16.6,6.4c-5.7,0-9.3,1.2-9.3,2s3.5,2,9.3,2c5.7,0,9.3-1.2,9.3-2S22.4,6.4,16.6,6.4z"/>
	</g>
	<g>
		<path class="st1" d="M16.6,21.9c-4.7,0-9.8-0.9-9.8-2.5c0-0.1,0.1-0.2,0.2-0.2s0.2,0.1,0.2,0.2c0,0.8,3.5,2,9.3,2
			c5.7,0,9.3-1.2,9.3-2c0-0.1,0.1-0.2,0.2-0.2s0.2,0.1,0.2,0.2C26.4,21,21.4,21.9,16.6,21.9z"/>
	</g>
	<g>
		<path class="st1" d="M16.6,16.4c-4.7,0-9.8-0.9-9.8-2.5c0-0.1,0.1-0.2,0.2-0.2s0.2,0.1,0.2,0.2c0,0.8,3.5,2,9.3,2
			c5.7,0,9.3-1.2,9.3-2c0-0.1,0.1-0.2,0.2-0.2s0.2,0.1,0.2,0.2C26.4,15.5,21.4,16.4,16.6,16.4z"/>
	</g>
	<g>
		<path class="st1" d="M16.6,13.5c-0.1,0-0.2-0.1-0.2-0.2s0.1-0.2,0.2-0.2c1.2,0,2.3-0.1,3.4-0.2c0.1,0,0.3,0.1,0.3,0.2
			c0,0.1-0.1,0.3-0.2,0.3C19,13.5,17.8,13.5,16.6,13.5z"/>
	</g>
	<g>
		<path class="st1" d="M22.8,13c-0.1,0-0.2-0.1-0.2-0.2c0-0.1,0.1-0.3,0.2-0.3c0.3-0.1,0.5-0.1,0.8-0.2c0.1,0,0.3,0,0.3,0.2
			c0,0.1,0,0.3-0.2,0.3C23.4,12.8,23.2,12.9,22.8,13C22.9,12.9,22.9,13,22.8,13z"/>
	</g>
	<g>
		<path class="st1" d="M16.6,18.9c-0.1,0-0.2-0.1-0.2-0.2s0.1-0.2,0.2-0.2c1.2,0,2.3-0.1,3.4-0.2c0.1,0,0.3,0.1,0.3,0.2
			c0,0.1-0.1,0.3-0.2,0.3C19,18.9,17.8,18.9,16.6,18.9z"/>
	</g>
	<g>
		<path class="st1" d="M22.8,18.4c-0.1,0-0.2-0.1-0.2-0.2c0-0.1,0.1-0.3,0.2-0.3c0.3-0.1,0.5-0.1,0.8-0.2c0.1,0,0.3,0,0.3,0.2
			c0,0.1,0,0.3-0.2,0.3C23.4,18.2,23.2,18.3,22.8,18.4C22.9,18.4,22.9,18.4,22.8,18.4z"/>
	</g>
	<g>
		<path class="st1" d="M16.6,24.3c-0.1,0-0.2-0.1-0.2-0.2s0.1-0.2,0.2-0.2c1.2,0,2.3-0.1,3.4-0.2c0.1,0,0.3,0.1,0.3,0.2
			c0,0.1-0.1,0.3-0.2,0.3C19,24.3,17.8,24.3,16.6,24.3z"/>
	</g>
	<g>
		<path class="st1" d="M22.8,23.8c-0.1,0-0.2-0.1-0.2-0.2c0-0.1,0.1-0.3,0.2-0.3c0.3-0.1,0.5-0.1,0.8-0.2c0.1,0,0.3,0,0.3,0.2
			c0,0.1,0,0.3-0.2,0.3C23.4,23.7,23.2,23.7,22.8,23.8C22.9,23.8,22.9,23.8,22.8,23.8z"/>
	</g>
</g>
</svg>
