<?xml version="1.0" encoding="utf-8"?>
<!-- Generator: Adobe Illustrator 23.0.4, SVG Export Plug-In . SVG Version: 6.00 Build 0)  -->
<svg version="1.1" id="Layer_1" xmlns="http://www.w3.org/2000/svg" xmlns:xlink="http://www.w3.org/1999/xlink" x="0px" y="0px"
	 viewBox="0 0 33.2 33.2" style="enable-background:new 0 0 33.2 33.2;" xml:space="preserve">
<style type="text/css">
	.st0{fill:#BEE9FC;}
	.st1{fill:#FFFFFF;}
	.st2{fill:#FFFFFF;stroke:#000000;stroke-linejoin:round;stroke-miterlimit:10;}
	.st3{fill:#EB5424;}
	.st4{fill:none;stroke:#000000;stroke-linecap:round;stroke-linejoin:round;stroke-miterlimit:10;}
	.st5{fill:#FFFFFF;stroke:#000000;stroke-linecap:round;stroke-linejoin:round;stroke-miterlimit:10;}
	.st6{fill:#FFFFFF;stroke:#444444;stroke-linejoin:round;stroke-miterlimit:10;}
	.st7{fill:none;stroke:#000000;stroke-width:3;stroke-miterlimit:10;}
	.st8{fill:none;stroke:#000000;stroke-width:3;stroke-linejoin:round;stroke-miterlimit:10;}
	.st9{fill:none;stroke:#000000;stroke-width:0.5;stroke-linecap:round;stroke-linejoin:round;stroke-miterlimit:10;}
	.st10{fill:#3445DC;}
	.st11{fill:none;stroke:#EB5424;stroke-linecap:round;stroke-linejoin:round;stroke-miterlimit:10;}
	.st12{fill:none;stroke:#000000;stroke-linejoin:round;stroke-miterlimit:10;}
	.st13{fill:none;stroke:#000000;stroke-linecap:round;stroke-miterlimit:10;}
	.st14{fill:none;stroke:#000000;stroke-width:0.5;stroke-linecap:round;stroke-miterlimit:10;}
	.st15{fill:#FFFFFF;stroke:#FFFFFF;stroke-width:0.5;stroke-linecap:round;stroke-linejoin:round;stroke-miterlimit:10;}
	.st16{fill:#EB5424;stroke:#000000;stroke-linecap:round;stroke-linejoin:round;stroke-miterlimit:10;}
	.st17{fill:#EB5424;stroke:#000000;stroke-miterlimit:10;}
	.st18{fill:none;stroke:#000000;stroke-width:1.5;stroke-miterlimit:10;}
	.st19{fill:none;stroke:#000000;stroke-width:1.5;stroke-linejoin:round;stroke-miterlimit:10;}
	.st20{fill:none;stroke:#FFFFFF;stroke-linecap:round;stroke-linejoin:round;stroke-miterlimit:10;}
	.st21{fill:none;stroke:#000000;stroke-width:0.5;stroke-linejoin:round;stroke-miterlimit:10;}
	.st22{fill:none;stroke:#FFFFFF;stroke-width:0.5;stroke-linecap:round;stroke-linejoin:round;stroke-miterlimit:10;}
	.st23{fill:none;stroke:#EB5424;stroke-width:0.5;stroke-linecap:round;stroke-linejoin:round;stroke-miterlimit:10;}
	.st24{fill:#EB5424;stroke:#000000;stroke-width:0.5;stroke-linecap:round;stroke-linejoin:round;stroke-miterlimit:10;}
	.st25{fill:none;stroke:#000000;stroke-linecap:round;stroke-linejoin:round;stroke-dasharray:0,3.0066;}
	.st26{fill:none;stroke:#000000;stroke-linecap:round;stroke-linejoin:round;stroke-dasharray:0,3.0071;}
	.st27{fill:#FFFFFF;stroke:#444444;stroke-width:1.2;stroke-linejoin:round;stroke-miterlimit:10;}
	.st28{fill:none;stroke:#000000;stroke-width:1.2;stroke-miterlimit:10;}
	.st29{fill:none;stroke:#000000;stroke-width:1.2;stroke-linejoin:round;stroke-miterlimit:10;}
	.st30{clip-path:url(#SVGID_2_);}
	.st31{fill:none;stroke:#000000;stroke-linecap:round;stroke-linejoin:round;stroke-dasharray:0,2.9263;}
	.st32{clip-path:url(#SVGID_4_);}
	.st33{fill:none;stroke:#000000;stroke-linecap:round;stroke-linejoin:round;stroke-dasharray:0,3.0117;}
	.st34{fill:none;stroke:#000000;stroke-width:0.5;stroke-miterlimit:10;}
	.st35{fill:none;stroke:#FFFFFF;stroke-width:0.5;stroke-linejoin:round;stroke-miterlimit:10;}
	.st36{fill:none;stroke:#000000;stroke-width:0.8;stroke-miterlimit:10;}
	.st37{fill:none;stroke:#000000;stroke-width:0.8;stroke-linejoin:round;stroke-miterlimit:10;}
	.st38{fill:none;stroke:#EB5424;stroke-miterlimit:10;}
	.st39{fill:none;stroke:#000000;stroke-miterlimit:10;}
	.st40{fill:none;stroke:#EB5424;stroke-width:0.5;stroke-miterlimit:10;}
	.st41{fill:#FFFDFD;stroke:#EB5424;stroke-linecap:round;stroke-linejoin:round;stroke-miterlimit:10;}
	.st42{fill:none;stroke:#EB5424;stroke-linecap:round;stroke-linejoin:round;stroke-miterlimit:10;stroke-dasharray:2;}
	.st43{fill:#FFFFFF;stroke:#EB5424;stroke-linecap:round;stroke-linejoin:round;stroke-miterlimit:10;}
	
		.st44{fill:none;stroke:#EB5424;stroke-width:0.5;stroke-linecap:round;stroke-linejoin:round;stroke-miterlimit:10;stroke-dasharray:2;}
	.st45{fill:#FFFFFF;stroke:#000000;stroke-width:0.5;stroke-linecap:round;stroke-linejoin:round;stroke-miterlimit:10;}
	.st46{fill:none;stroke:#EB5424;stroke-width:2;stroke-linecap:round;stroke-linejoin:round;stroke-miterlimit:10;}
	.st47{fill:#FFFFFF;stroke:#FFFFFF;stroke-linecap:round;stroke-linejoin:round;stroke-miterlimit:10;}
</style>
<g>
	<g>
		<g>
			<g>
				<rect x="9.9" y="13.2" class="st3" width="13.6" height="2.4"/>
				<path class="st1" d="M23.6,15.8H9.9c-0.1,0-0.2-0.1-0.2-0.2v-2.4c0-0.1,0.1-0.2,0.2-0.2h13.6c0.1,0,0.2,0.1,0.2,0.2v2.4
					C23.8,15.7,23.7,15.8,23.6,15.8z M10.2,15.3h13.1v-1.9H10.2V15.3z"/>
			</g>
			<g>
				<rect x="9.9" y="20.1" class="st3" width="13.6" height="2.4"/>
				<path class="st1" d="M23.6,22.8H9.9c-0.1,0-0.2-0.1-0.2-0.2v-2.4c0-0.1,0.1-0.2,0.2-0.2h13.6c0.1,0,0.2,0.1,0.2,0.2v2.4
					C23.8,22.6,23.7,22.8,23.6,22.8z M10.2,22.3h13.1v-1.9H10.2V22.3z"/>
			</g>
			<g>
				<path class="st1" d="M24.9,20.3H8.6c-0.1,0-0.2-0.1-0.2-0.2v-4.5c0-0.1,0.1-0.2,0.2-0.2h16.3c0.1,0,0.2,0.1,0.2,0.2v4.5
					C25.1,20.2,25,20.3,24.9,20.3z M8.9,19.8h15.8v-4H8.9V19.8z"/>
			</g>
			<g>
				<path class="st1" d="M24.9,13.4H8.6c-0.1,0-0.2-0.1-0.2-0.2V8.7c0-0.1,0.1-0.2,0.2-0.2h16.3c0.1,0,0.2,0.1,0.2,0.2v4.5
					C25.1,13.3,25,13.4,24.9,13.4z M8.9,12.9h15.8v-4H8.9V12.9z"/>
			</g>
			<g>
				<path class="st1" d="M24.9,27.3H8.6c-0.1,0-0.2-0.1-0.2-0.2v-4.5c0-0.1,0.1-0.2,0.2-0.2h16.3c0.1,0,0.2,0.1,0.2,0.2V27
					C25.1,27.1,25,27.3,24.9,27.3z M8.9,26.8h15.8v-4H8.9V26.8z"/>
			</g>
		</g>
		<g>
			<path class="st1" d="M8.1,25.3H5.5c-0.1,0-0.2-0.1-0.2-0.2s0.1-0.2,0.2-0.2h2.7c0.1,0,0.2,0.1,0.2,0.2S8.3,25.3,8.1,25.3z"/>
		</g>
		<g>
			<path class="st1" d="M27.8,25.3h-2.7c-0.1,0-0.2-0.1-0.2-0.2s0.1-0.2,0.2-0.2h2.7c0.1,0,0.2,0.1,0.2,0.2S27.9,25.3,27.8,25.3z"/>
		</g>
		<g>
			<rect x="7.3" y="24.2" class="st1" width="1" height="1.8"/>
		</g>
		<g>
			<rect x="25.1" y="24.2" class="st1" width="1" height="1.8"/>
		</g>
		<g>
			<path class="st3" d="M22.2,18h-5.7c-0.1,0-0.2-0.1-0.2-0.2s0.1-0.2,0.2-0.2h5.7c0.1,0,0.2,0.1,0.2,0.2S22.4,18,22.2,18z"/>
		</g>
		<g>
			<path class="st3" d="M22.4,25h-5.7c-0.1,0-0.2-0.1-0.2-0.2s0.1-0.2,0.2-0.2h5.7c0.1,0,0.2,0.1,0.2,0.2S22.6,25,22.4,25z"/>
		</g>
		<g>
			<path class="st3" d="M22.2,11.1h-5.7c-0.1,0-0.2-0.1-0.2-0.2s0.1-0.2,0.2-0.2h5.7c0.1,0,0.2,0.1,0.2,0.2S22.4,11.1,22.2,11.1z"/>
		</g>
		<g>
			<circle class="st1" cx="14" cy="10.9" r="0.6"/>
		</g>
		<g>
			<circle class="st1" cx="14" cy="17.8" r="0.6"/>
		</g>
		<g>
			<circle class="st1" cx="14" cy="24.7" r="0.6"/>
		</g>
		<g>
			<path class="st1" d="M22.9,8.9h-4.2c-0.1,0-0.2,0-0.2-0.1c0-0.1-0.1-0.2,0-0.2l0.9-2.4C19.4,6,19.5,6,19.6,6h2.3
				C22,6,22.1,6,22.1,6.1l0.9,2.4c0,0.1,0,0.2,0,0.2C23,8.8,22.9,8.9,22.9,8.9z M19,8.4h3.5l-0.7-1.9h-2L19,8.4z"/>
		</g>
	</g>
</g>
</svg>
