<?xml version="1.0" encoding="utf-8"?>
<!-- Generator: Adobe Illustrator 23.0.4, SVG Export Plug-In . SVG Version: 6.00 Build 0)  -->
<svg version="1.1" id="Layer_1" xmlns="http://www.w3.org/2000/svg" xmlns:xlink="http://www.w3.org/1999/xlink" x="0px" y="0px"
	 viewBox="0 0 33.2 33.2" style="enable-background:new 0 0 33.2 33.2;" xml:space="preserve">
<style type="text/css">
	.st0{fill:#BEE9FC;}
	.st1{fill:#FFFFFF;}
	.st2{fill:#FFFFFF;stroke:#000000;stroke-linejoin:round;stroke-miterlimit:10;}
	.st3{fill:#EB5424;}
	.st4{fill:none;stroke:#000000;stroke-linecap:round;stroke-linejoin:round;stroke-miterlimit:10;}
	.st5{fill:#FFFFFF;stroke:#000000;stroke-linecap:round;stroke-linejoin:round;stroke-miterlimit:10;}
	.st6{fill:#FFFFFF;stroke:#444444;stroke-linejoin:round;stroke-miterlimit:10;}
	.st7{fill:none;stroke:#000000;stroke-width:3;stroke-miterlimit:10;}
	.st8{fill:none;stroke:#000000;stroke-width:3;stroke-linejoin:round;stroke-miterlimit:10;}
	.st9{fill:none;stroke:#000000;stroke-width:0.5;stroke-linecap:round;stroke-linejoin:round;stroke-miterlimit:10;}
	.st10{fill:#3445DC;}
	.st11{fill:none;stroke:#EB5424;stroke-linecap:round;stroke-linejoin:round;stroke-miterlimit:10;}
	.st12{fill:none;stroke:#000000;stroke-linejoin:round;stroke-miterlimit:10;}
	.st13{fill:none;stroke:#000000;stroke-linecap:round;stroke-miterlimit:10;}
	.st14{fill:none;stroke:#000000;stroke-width:0.5;stroke-linecap:round;stroke-miterlimit:10;}
	.st15{fill:#FFFFFF;stroke:#FFFFFF;stroke-width:0.5;stroke-linecap:round;stroke-linejoin:round;stroke-miterlimit:10;}
	.st16{fill:#EB5424;stroke:#000000;stroke-linecap:round;stroke-linejoin:round;stroke-miterlimit:10;}
	.st17{fill:#EB5424;stroke:#000000;stroke-miterlimit:10;}
	.st18{fill:none;stroke:#000000;stroke-width:1.5;stroke-miterlimit:10;}
	.st19{fill:none;stroke:#000000;stroke-width:1.5;stroke-linejoin:round;stroke-miterlimit:10;}
	.st20{fill:none;stroke:#FFFFFF;stroke-linecap:round;stroke-linejoin:round;stroke-miterlimit:10;}
	.st21{fill:none;stroke:#000000;stroke-width:0.5;stroke-linejoin:round;stroke-miterlimit:10;}
	.st22{fill:none;stroke:#FFFFFF;stroke-width:0.5;stroke-linecap:round;stroke-linejoin:round;stroke-miterlimit:10;}
	.st23{fill:none;stroke:#EB5424;stroke-width:0.5;stroke-linecap:round;stroke-linejoin:round;stroke-miterlimit:10;}
	.st24{fill:#EB5424;stroke:#000000;stroke-width:0.5;stroke-linecap:round;stroke-linejoin:round;stroke-miterlimit:10;}
	.st25{fill:none;stroke:#000000;stroke-linecap:round;stroke-linejoin:round;stroke-dasharray:0,3.0066;}
	.st26{fill:none;stroke:#000000;stroke-linecap:round;stroke-linejoin:round;stroke-dasharray:0,3.0071;}
	.st27{fill:#FFFFFF;stroke:#444444;stroke-width:1.2;stroke-linejoin:round;stroke-miterlimit:10;}
	.st28{fill:none;stroke:#000000;stroke-width:1.2;stroke-miterlimit:10;}
	.st29{fill:none;stroke:#000000;stroke-width:1.2;stroke-linejoin:round;stroke-miterlimit:10;}
	.st30{clip-path:url(#SVGID_2_);}
	.st31{fill:none;stroke:#000000;stroke-linecap:round;stroke-linejoin:round;stroke-dasharray:0,2.9263;}
	.st32{clip-path:url(#SVGID_4_);}
	.st33{fill:none;stroke:#000000;stroke-linecap:round;stroke-linejoin:round;stroke-dasharray:0,3.0117;}
	.st34{fill:none;stroke:#000000;stroke-width:0.5;stroke-miterlimit:10;}
	.st35{fill:none;stroke:#FFFFFF;stroke-width:0.5;stroke-linejoin:round;stroke-miterlimit:10;}
	.st36{fill:none;stroke:#000000;stroke-width:0.8;stroke-miterlimit:10;}
	.st37{fill:none;stroke:#000000;stroke-width:0.8;stroke-linejoin:round;stroke-miterlimit:10;}
	.st38{fill:none;stroke:#EB5424;stroke-miterlimit:10;}
	.st39{fill:none;stroke:#000000;stroke-miterlimit:10;}
	.st40{fill:none;stroke:#EB5424;stroke-width:0.5;stroke-miterlimit:10;}
	.st41{fill:#FFFDFD;stroke:#EB5424;stroke-linecap:round;stroke-linejoin:round;stroke-miterlimit:10;}
	.st42{fill:none;stroke:#EB5424;stroke-linecap:round;stroke-linejoin:round;stroke-miterlimit:10;stroke-dasharray:2;}
	.st43{fill:#FFFFFF;stroke:#EB5424;stroke-linecap:round;stroke-linejoin:round;stroke-miterlimit:10;}
	
		.st44{fill:none;stroke:#EB5424;stroke-width:0.5;stroke-linecap:round;stroke-linejoin:round;stroke-miterlimit:10;stroke-dasharray:2;}
	.st45{fill:#FFFFFF;stroke:#000000;stroke-width:0.5;stroke-linecap:round;stroke-linejoin:round;stroke-miterlimit:10;}
	.st46{fill:none;stroke:#EB5424;stroke-width:2;stroke-linecap:round;stroke-linejoin:round;stroke-miterlimit:10;}
	.st47{fill:#FFFFFF;stroke:#FFFFFF;stroke-linecap:round;stroke-linejoin:round;stroke-miterlimit:10;}
</style>
<g>
	<g>
		<path class="st1" d="M26.1,24.9H10.2c-0.1,0-0.2-0.1-0.2-0.2s0.1-0.2,0.2-0.2h15.9c0.1,0,0.2,0.1,0.2,0.2S26.3,24.9,26.1,24.9z"/>
	</g>
	<g>
		<path class="st1" d="M8.3,24.9H6.6c-0.1,0-0.2-0.1-0.2-0.2s0.1-0.2,0.2-0.2h1.7c0.1,0,0.2,0.1,0.2,0.2S8.5,24.9,8.3,24.9z"/>
	</g>
	<g>
		<path class="st1" d="M23.1,22.2H7.1c-0.1,0-0.2-0.1-0.2-0.2s0.1-0.2,0.2-0.2h15.9c0.1,0,0.2,0.1,0.2,0.2S23.2,22.2,23.1,22.2z"/>
	</g>
	<g>
		<path class="st1" d="M26.6,22.2h-1.7c-0.1,0-0.2-0.1-0.2-0.2s0.1-0.2,0.2-0.2h1.7c0.1,0,0.2,0.1,0.2,0.2S26.7,22.2,26.6,22.2z"/>
	</g>
	<g>
		<path class="st3" d="M16.9,26.2L16.9,26.2c-1.3,0-2.3-1.1-2.3-2.3v-1.4c0-1.3,1.1-2.3,2.3-2.3h0c1.3,0,2.3,1.1,2.3,2.3v1.4
			C19.2,25.1,18.2,26.2,16.9,26.2z"/>
		<path class="st1" d="M16.9,26.4c-1.4,0-2.6-1.2-2.6-2.6v-1.4c0-1.4,1.2-2.6,2.6-2.6c1.4,0,2.6,1.2,2.6,2.6v1.4
			C19.5,25.3,18.3,26.4,16.9,26.4z M16.9,20.3c-1.2,0-2.1,0.9-2.1,2.1v1.4c0,1.2,0.9,2.1,2.1,2.1S19,25,19,23.9v-1.4
			C19,21.3,18,20.3,16.9,20.3z"/>
	</g>
	<g>
		<path class="st1" d="M16.9,20.3c-0.1,0-0.2-0.1-0.2-0.2v-3.8c0-0.1,0.1-0.3,0.2-0.3s0.2,0.1,0.2,0.3v3.8
			C17.2,20.2,17.1,20.3,16.9,20.3z"/>
	</g>
	<g>
		<path class="st1" d="M21.2,16.5h-8.9c-1.2,0-2.1-1-2.1-2.1V8.9c0-1.2,1-2.1,2.1-2.1h8.9c1.2,0,2.1,1,2.1,2.1v5.4
			C23.3,15.5,22.3,16.5,21.2,16.5z M12.3,7.3c-0.9,0-1.6,0.7-1.6,1.6v5.4c0,0.9,0.7,1.6,1.6,1.6h8.9c0.9,0,1.6-0.7,1.6-1.6V8.9
			c0-0.9-0.7-1.6-1.6-1.6H12.3z"/>
	</g>
	<g>
		<path class="st3" d="M19.2,14.2c-0.1,0-0.1,0-0.2-0.1c-0.1-0.1-0.1-0.3,0-0.4l1.1-1h-4.5c-0.1,0-0.2-0.1-0.2-0.2s0.1-0.2,0.2-0.2
			h5.2c0.1,0,0.2,0.1,0.2,0.2c0,0.1,0,0.2-0.1,0.3l-1.5,1.4C19.3,14.2,19.3,14.2,19.2,14.2z"/>
	</g>
	<g>
		<path class="st3" d="M17.9,10.9h-5.2c-0.1,0-0.2-0.1-0.2-0.1s0-0.2,0-0.3L13.8,9c0.1-0.1,0.3-0.1,0.4,0c0.1,0.1,0.1,0.3,0,0.4
			l-0.9,1h4.6c0.1,0,0.2,0.1,0.2,0.2S18.1,10.9,17.9,10.9z"/>
	</g>
</g>
</svg>
