<?xml version="1.0" encoding="utf-8"?>
<!-- Generator: Adobe Illustrator 23.0.4, SVG Export Plug-In . SVG Version: 6.00 Build 0)  -->
<svg version="1.1" id="Layer_1" xmlns="http://www.w3.org/2000/svg" xmlns:xlink="http://www.w3.org/1999/xlink" x="0px" y="0px"
	 viewBox="0 0 33.2 33.2" style="enable-background:new 0 0 33.2 33.2;" xml:space="preserve">
<style type="text/css">
	.st0{fill:#BEE9FC;}
	.st1{fill:#FFFFFF;}
	.st2{fill:#FFFFFF;stroke:#000000;stroke-linejoin:round;stroke-miterlimit:10;}
	.st3{fill:#EB5424;}
	.st4{fill:none;stroke:#000000;stroke-linecap:round;stroke-linejoin:round;stroke-miterlimit:10;}
	.st5{fill:#FFFFFF;stroke:#000000;stroke-linecap:round;stroke-linejoin:round;stroke-miterlimit:10;}
	.st6{fill:#FFFFFF;stroke:#444444;stroke-linejoin:round;stroke-miterlimit:10;}
	.st7{fill:none;stroke:#000000;stroke-width:3;stroke-miterlimit:10;}
	.st8{fill:none;stroke:#000000;stroke-width:3;stroke-linejoin:round;stroke-miterlimit:10;}
	.st9{fill:none;stroke:#000000;stroke-width:0.5;stroke-linecap:round;stroke-linejoin:round;stroke-miterlimit:10;}
	.st10{fill:#3445DC;}
	.st11{fill:none;stroke:#EB5424;stroke-linecap:round;stroke-linejoin:round;stroke-miterlimit:10;}
	.st12{fill:none;stroke:#000000;stroke-linejoin:round;stroke-miterlimit:10;}
	.st13{fill:none;stroke:#000000;stroke-linecap:round;stroke-miterlimit:10;}
	.st14{fill:none;stroke:#000000;stroke-width:0.5;stroke-linecap:round;stroke-miterlimit:10;}
	.st15{fill:#FFFFFF;stroke:#FFFFFF;stroke-width:0.5;stroke-linecap:round;stroke-linejoin:round;stroke-miterlimit:10;}
	.st16{fill:#EB5424;stroke:#000000;stroke-linecap:round;stroke-linejoin:round;stroke-miterlimit:10;}
	.st17{fill:#EB5424;stroke:#000000;stroke-miterlimit:10;}
	.st18{fill:none;stroke:#000000;stroke-width:1.5;stroke-miterlimit:10;}
	.st19{fill:none;stroke:#000000;stroke-width:1.5;stroke-linejoin:round;stroke-miterlimit:10;}
	.st20{fill:none;stroke:#FFFFFF;stroke-linecap:round;stroke-linejoin:round;stroke-miterlimit:10;}
	.st21{fill:none;stroke:#000000;stroke-width:0.5;stroke-linejoin:round;stroke-miterlimit:10;}
	.st22{fill:none;stroke:#FFFFFF;stroke-width:0.5;stroke-linecap:round;stroke-linejoin:round;stroke-miterlimit:10;}
	.st23{fill:none;stroke:#EB5424;stroke-width:0.5;stroke-linecap:round;stroke-linejoin:round;stroke-miterlimit:10;}
	.st24{fill:#EB5424;stroke:#000000;stroke-width:0.5;stroke-linecap:round;stroke-linejoin:round;stroke-miterlimit:10;}
	.st25{fill:none;stroke:#000000;stroke-linecap:round;stroke-linejoin:round;stroke-dasharray:0,3.0066;}
	.st26{fill:none;stroke:#000000;stroke-linecap:round;stroke-linejoin:round;stroke-dasharray:0,3.0071;}
	.st27{fill:#FFFFFF;stroke:#444444;stroke-width:1.2;stroke-linejoin:round;stroke-miterlimit:10;}
	.st28{fill:none;stroke:#000000;stroke-width:1.2;stroke-miterlimit:10;}
	.st29{fill:none;stroke:#000000;stroke-width:1.2;stroke-linejoin:round;stroke-miterlimit:10;}
	.st30{clip-path:url(#SVGID_2_);}
	.st31{fill:none;stroke:#000000;stroke-linecap:round;stroke-linejoin:round;stroke-dasharray:0,2.9263;}
	.st32{clip-path:url(#SVGID_4_);}
	.st33{fill:none;stroke:#000000;stroke-linecap:round;stroke-linejoin:round;stroke-dasharray:0,3.0117;}
	.st34{fill:none;stroke:#000000;stroke-width:0.5;stroke-miterlimit:10;}
	.st35{fill:none;stroke:#FFFFFF;stroke-width:0.5;stroke-linejoin:round;stroke-miterlimit:10;}
	.st36{fill:none;stroke:#000000;stroke-width:0.8;stroke-miterlimit:10;}
	.st37{fill:none;stroke:#000000;stroke-width:0.8;stroke-linejoin:round;stroke-miterlimit:10;}
	.st38{fill:none;stroke:#EB5424;stroke-miterlimit:10;}
	.st39{fill:none;stroke:#000000;stroke-miterlimit:10;}
	.st40{fill:none;stroke:#EB5424;stroke-width:0.5;stroke-miterlimit:10;}
	.st41{fill:#FFFDFD;stroke:#EB5424;stroke-linecap:round;stroke-linejoin:round;stroke-miterlimit:10;}
	.st42{fill:none;stroke:#EB5424;stroke-linecap:round;stroke-linejoin:round;stroke-miterlimit:10;stroke-dasharray:2;}
	.st43{fill:#FFFFFF;stroke:#EB5424;stroke-linecap:round;stroke-linejoin:round;stroke-miterlimit:10;}
	
		.st44{fill:none;stroke:#EB5424;stroke-width:0.5;stroke-linecap:round;stroke-linejoin:round;stroke-miterlimit:10;stroke-dasharray:2;}
	.st45{fill:#FFFFFF;stroke:#000000;stroke-width:0.5;stroke-linecap:round;stroke-linejoin:round;stroke-miterlimit:10;}
	.st46{fill:none;stroke:#EB5424;stroke-width:2;stroke-linecap:round;stroke-linejoin:round;stroke-miterlimit:10;}
	.st47{fill:#FFFFFF;stroke:#FFFFFF;stroke-linecap:round;stroke-linejoin:round;stroke-miterlimit:10;}
</style>
<g>
	<g>
		<path class="st1" d="M16.6,27.9c-6.2,0-11.3-5.1-11.3-11.3c0-6.2,5.1-11.3,11.3-11.3c0.1,0,0.2,0.1,0.2,0.2
			c0.3,1.8,1.1,2.7,2.7,2.8c0.1,0,0.1,0,0.2,0.1c0,0.1,0.1,0.1,0,0.2c0,0.2-0.1,0.4-0.1,0.5c0,1.6,1.3,2.9,2.9,2.9
			c0.5,0,1-0.1,1.4-0.4c0.1,0,0.1,0,0.2,0c0.1,0,0.1,0.1,0.2,0.1c0.4,1.1,1.6,1.9,2.9,1.9c0.1,0,0.2,0.1,0.2,0.2
			c0.2,0.9,0.4,1.9,0.4,2.8C28,22.9,22.9,27.9,16.6,27.9z M16.4,5.8C10.5,5.9,5.8,10.7,5.8,16.6c0,6,4.9,10.8,10.8,10.8
			c6,0,10.8-4.9,10.8-10.8c0-0.9-0.1-1.7-0.3-2.5c-1.3-0.1-2.5-0.9-3-1.9c-0.5,0.2-1,0.3-1.5,0.3c-1.9,0-3.4-1.5-3.4-3.4
			c0-0.1,0-0.2,0-0.3C17.7,8.6,16.8,7.6,16.4,5.8z"/>
	</g>
	<g>
		<path class="st3" d="M18.1,10c-0.2,1.9,2,4.7,5.3,3.7c0.4,1,0.9,1.4,2.6,1.8c0.6,5.4-4.3,10.4-9.4,10.4s-9.4-4.1-9.3-9.3
			c0.1-4.9,4-8.8,8-8.9C15.6,9.4,16.7,9.9,18.1,10z"/>
	</g>
	<g>
		<g>
			<path class="st1" d="M14,8.7c0,0-0.1,0-0.1,0L12.7,8c-0.1-0.1-0.2-0.2-0.1-0.3c0.1-0.1,0.2-0.2,0.3-0.1l1.1,0.6
				c0.1,0.1,0.2,0.2,0.1,0.3C14.1,8.6,14,8.7,14,8.7z"/>
		</g>
		<g>
			<path class="st1" d="M14.8,22c-0.1,0-0.2-0.1-0.2-0.2c0-0.1,0-0.3,0.2-0.3l1.1-0.4c0.1,0,0.3,0,0.3,0.2c0,0.1,0,0.3-0.2,0.3
				L14.8,22C14.8,22,14.8,22,14.8,22z"/>
		</g>
		<g>
			<path class="st1" d="M18.3,12.5c-0.1,0-0.2,0-0.2-0.1c-0.1-0.1,0-0.3,0.1-0.3l1.2-0.7c0.1-0.1,0.3,0,0.3,0.1
				c0.1,0.1,0,0.3-0.1,0.3l-1.2,0.7C18.4,12.5,18.3,12.5,18.3,12.5z"/>
		</g>
		<g>
			<path class="st1" d="M13.3,14c-0.1,0-0.1,0-0.2-0.1l-0.7-0.6c-0.1-0.1-0.1-0.3,0-0.4c0.1-0.1,0.3-0.1,0.4,0l0.7,0.6
				c0.1,0.1,0.1,0.3,0,0.4C13.4,14,13.3,14,13.3,14z"/>
		</g>
		<g>
			<path class="st1" d="M9.8,16c-0.1,0-0.2,0-0.2-0.1c-0.1-0.1-0.1-0.3,0.1-0.3l0.8-0.6c0.1-0.1,0.3-0.1,0.3,0.1
				c0.1,0.1,0.1,0.3-0.1,0.3l-0.8,0.6C9.9,16,9.8,16,9.8,16z"/>
		</g>
		<g>
			<path class="st1" d="M8.8,10.8c-0.1,0-0.1,0-0.2-0.1l-0.5-0.6c-0.1-0.1-0.1-0.3,0-0.4c0.1-0.1,0.3-0.1,0.4,0L9,10.4
				c0.1,0.1,0.1,0.3,0,0.4C9,10.8,8.9,10.8,8.8,10.8z"/>
		</g>
		<g>
			<path class="st1" d="M7.4,20.4c-0.1,0-0.2-0.1-0.2-0.2c0-0.1,0.1-0.3,0.2-0.3l1.1-0.1c0.1,0,0.3,0.1,0.3,0.2
				c0,0.1-0.1,0.3-0.2,0.3L7.4,20.4C7.4,20.4,7.4,20.4,7.4,20.4z"/>
		</g>
		<g>
			<path class="st1" d="M12,25.7c-0.1,0-0.2-0.1-0.2-0.2V25c0-0.1,0.1-0.2,0.2-0.2s0.2,0.1,0.2,0.2v0.4C12.3,25.6,12.2,25.7,12,25.7
				z"/>
		</g>
		<g>
			<path class="st1" d="M25.8,19.2c0,0-0.1,0-0.1,0l-0.8-0.4c-0.1-0.1-0.2-0.2-0.1-0.3c0.1-0.1,0.2-0.2,0.3-0.1l0.8,0.4
				c0.1,0.1,0.2,0.2,0.1,0.3C26,19.1,25.9,19.2,25.8,19.2z"/>
		</g>
		<g>
			<path class="st1" d="M22.1,14.5c-0.1,0-0.2-0.1-0.2-0.2c-0.1-0.1,0-0.3,0.1-0.3l0.9-0.4c0.1-0.1,0.3,0,0.3,0.1
				c0.1,0.1,0,0.3-0.1,0.3L22.1,14.5C22.2,14.5,22.1,14.5,22.1,14.5z"/>
		</g>
		<g>
			<path class="st1" d="M17.4,17.9c-0.1,0-0.1,0-0.2-0.1l-0.6-0.6c-0.1-0.1-0.1-0.3,0-0.4s0.3-0.1,0.4,0l0.6,0.6
				c0.1,0.1,0.1,0.3,0,0.4C17.5,17.9,17.5,17.9,17.4,17.9z"/>
		</g>
		<g>
			<path class="st1" d="M12.7,18.8C12.7,18.8,12.7,18.8,12.7,18.8c-0.2,0-0.3-0.2-0.2-0.3l0.1-0.3c0-0.1,0.2-0.2,0.3-0.2
				c0.1,0,0.2,0.2,0.2,0.3L13,18.6C12.9,18.7,12.8,18.8,12.7,18.8z"/>
		</g>
		<g>
			<path class="st1" d="M19.8,23.2C19.8,23.2,19.8,23.2,19.8,23.2c-0.2,0-0.3-0.2-0.2-0.3l0.2-1.5c0-0.1,0.2-0.2,0.3-0.2
				c0.1,0,0.2,0.2,0.2,0.3L20,23C20,23.1,19.9,23.2,19.8,23.2z"/>
		</g>
	</g>
</g>
</svg>
