<?xml version="1.0" encoding="utf-8"?>
<!-- Generator: Adobe Illustrator 23.0.4, SVG Export Plug-In . SVG Version: 6.00 Build 0)  -->
<svg version="1.1" id="Layer_1" xmlns="http://www.w3.org/2000/svg" xmlns:xlink="http://www.w3.org/1999/xlink" x="0px" y="0px"
	 viewBox="0 0 33.2 33.2" style="enable-background:new 0 0 33.2 33.2;" xml:space="preserve">
<style type="text/css">
	.st0{fill:#BEE9FC;}
	.st1{fill:#FFFFFF;}
	.st2{fill:#FFFFFF;stroke:#000000;stroke-linejoin:round;stroke-miterlimit:10;}
	.st3{fill:#EB5424;}
	.st4{fill:none;stroke:#000000;stroke-linecap:round;stroke-linejoin:round;stroke-miterlimit:10;}
	.st5{fill:#FFFFFF;stroke:#000000;stroke-linecap:round;stroke-linejoin:round;stroke-miterlimit:10;}
	.st6{fill:#FFFFFF;stroke:#444444;stroke-linejoin:round;stroke-miterlimit:10;}
	.st7{fill:none;stroke:#000000;stroke-width:3;stroke-miterlimit:10;}
	.st8{fill:none;stroke:#000000;stroke-width:3;stroke-linejoin:round;stroke-miterlimit:10;}
	.st9{fill:none;stroke:#000000;stroke-width:0.5;stroke-linecap:round;stroke-linejoin:round;stroke-miterlimit:10;}
	.st10{fill:#3445DC;}
	.st11{fill:none;stroke:#EB5424;stroke-linecap:round;stroke-linejoin:round;stroke-miterlimit:10;}
	.st12{fill:none;stroke:#000000;stroke-linejoin:round;stroke-miterlimit:10;}
	.st13{fill:none;stroke:#000000;stroke-linecap:round;stroke-miterlimit:10;}
	.st14{fill:none;stroke:#000000;stroke-width:0.5;stroke-linecap:round;stroke-miterlimit:10;}
	.st15{fill:#FFFFFF;stroke:#FFFFFF;stroke-width:0.5;stroke-linecap:round;stroke-linejoin:round;stroke-miterlimit:10;}
	.st16{fill:#EB5424;stroke:#000000;stroke-linecap:round;stroke-linejoin:round;stroke-miterlimit:10;}
	.st17{fill:#EB5424;stroke:#000000;stroke-miterlimit:10;}
	.st18{fill:none;stroke:#000000;stroke-width:1.5;stroke-miterlimit:10;}
	.st19{fill:none;stroke:#000000;stroke-width:1.5;stroke-linejoin:round;stroke-miterlimit:10;}
	.st20{fill:none;stroke:#FFFFFF;stroke-linecap:round;stroke-linejoin:round;stroke-miterlimit:10;}
	.st21{fill:none;stroke:#000000;stroke-width:0.5;stroke-linejoin:round;stroke-miterlimit:10;}
	.st22{fill:none;stroke:#FFFFFF;stroke-width:0.5;stroke-linecap:round;stroke-linejoin:round;stroke-miterlimit:10;}
	.st23{fill:none;stroke:#EB5424;stroke-width:0.5;stroke-linecap:round;stroke-linejoin:round;stroke-miterlimit:10;}
	.st24{fill:#EB5424;stroke:#000000;stroke-width:0.5;stroke-linecap:round;stroke-linejoin:round;stroke-miterlimit:10;}
	.st25{fill:none;stroke:#000000;stroke-linecap:round;stroke-linejoin:round;stroke-dasharray:0,3.0066;}
	.st26{fill:none;stroke:#000000;stroke-linecap:round;stroke-linejoin:round;stroke-dasharray:0,3.0071;}
	.st27{fill:#FFFFFF;stroke:#444444;stroke-width:1.2;stroke-linejoin:round;stroke-miterlimit:10;}
	.st28{fill:none;stroke:#000000;stroke-width:1.2;stroke-miterlimit:10;}
	.st29{fill:none;stroke:#000000;stroke-width:1.2;stroke-linejoin:round;stroke-miterlimit:10;}
	.st30{clip-path:url(#SVGID_2_);}
	.st31{fill:none;stroke:#000000;stroke-linecap:round;stroke-linejoin:round;stroke-dasharray:0,2.9263;}
	.st32{clip-path:url(#SVGID_4_);}
	.st33{fill:none;stroke:#000000;stroke-linecap:round;stroke-linejoin:round;stroke-dasharray:0,3.0117;}
	.st34{fill:none;stroke:#000000;stroke-width:0.5;stroke-miterlimit:10;}
	.st35{fill:none;stroke:#FFFFFF;stroke-width:0.5;stroke-linejoin:round;stroke-miterlimit:10;}
	.st36{fill:none;stroke:#000000;stroke-width:0.8;stroke-miterlimit:10;}
	.st37{fill:none;stroke:#000000;stroke-width:0.8;stroke-linejoin:round;stroke-miterlimit:10;}
	.st38{fill:none;stroke:#EB5424;stroke-miterlimit:10;}
	.st39{fill:none;stroke:#000000;stroke-miterlimit:10;}
	.st40{fill:none;stroke:#EB5424;stroke-width:0.5;stroke-miterlimit:10;}
	.st41{fill:#FFFDFD;stroke:#EB5424;stroke-linecap:round;stroke-linejoin:round;stroke-miterlimit:10;}
	.st42{fill:none;stroke:#EB5424;stroke-linecap:round;stroke-linejoin:round;stroke-miterlimit:10;stroke-dasharray:2;}
	.st43{fill:#FFFFFF;stroke:#EB5424;stroke-linecap:round;stroke-linejoin:round;stroke-miterlimit:10;}
	
		.st44{fill:none;stroke:#EB5424;stroke-width:0.5;stroke-linecap:round;stroke-linejoin:round;stroke-miterlimit:10;stroke-dasharray:2;}
	.st45{fill:#FFFFFF;stroke:#000000;stroke-width:0.5;stroke-linecap:round;stroke-linejoin:round;stroke-miterlimit:10;}
	.st46{fill:none;stroke:#EB5424;stroke-width:2;stroke-linecap:round;stroke-linejoin:round;stroke-miterlimit:10;}
	.st47{fill:#FFFFFF;stroke:#FFFFFF;stroke-linecap:round;stroke-linejoin:round;stroke-miterlimit:10;}
</style>
<g>
	<g>
		<path class="st1" d="M24.9,24.3C24.8,24.3,24.8,24.3,24.9,24.3c-0.2-0.1-0.3-0.2-0.2-0.3l3.2-9.9l-4.4-3.2
			c-0.1-0.1-0.1-0.2-0.1-0.3c0.1-0.1,0.2-0.1,0.3-0.1l4.6,3.3c0.1,0.1,0.1,0.2,0.1,0.3l-3.3,10C25.1,24.3,25,24.3,24.9,24.3z"/>
	</g>
	<g>
		<path class="st1" d="M22.5,27.8H9.5c-0.1,0-0.2-0.1-0.2-0.2l-1.9-5.8c0-0.1,0-0.3,0.2-0.3s0.3,0,0.3,0.2l1.9,5.7h12.8
			c0.1,0,0.2,0.1,0.2,0.2S22.6,27.8,22.5,27.8z"/>
	</g>
	<g>
		<path class="st1" d="M6.3,18c-0.1,0-0.2-0.1-0.2-0.2l-1.2-3.7c0-0.1,0-0.2,0.1-0.3l11.5-8.4c0.1-0.1,0.2-0.1,0.3,0L20.1,8
			c0.1,0.1,0.1,0.2,0,0.4c-0.1,0.1-0.2,0.1-0.4,0L16.6,6L5.4,14.1l1.1,3.5C6.6,17.8,6.5,17.9,6.3,18C6.4,18,6.3,18,6.3,18z"/>
	</g>
	<g>
		<polygon class="st3" points="16.6,10.4 9.6,15.5 12.3,23.8 21,23.8 23.7,15.5 		"/>
	</g>
	<g>
		<path class="st1" d="M24.9,24.6C24.9,24.6,24.9,24.6,24.9,24.6c-0.1,0-0.2-0.1-0.2-0.1l-1.1-1.7c-0.1-0.1,0-0.3,0.1-0.3
			c0.1-0.1,0.3,0,0.3,0.1l1,1.5l1.5-1c0.1-0.1,0.3,0,0.3,0.1s0,0.3-0.1,0.3L25,24.6C25,24.6,25,24.6,24.9,24.6z"/>
	</g>
	<g>
		<path class="st1" d="M18.2,8.9c-0.1,0-0.2-0.1-0.2-0.2c0-0.1,0.1-0.3,0.2-0.3l1.8-0.3l-0.3-1.8c0-0.1,0.1-0.3,0.2-0.3
			c0.1,0,0.3,0.1,0.3,0.2l0.3,2c0,0.1-0.1,0.3-0.2,0.3L18.2,8.9C18.2,8.9,18.2,8.9,18.2,8.9z"/>
	</g>
	<g>
		<path class="st1" d="M6.6,23.4c0,0-0.1,0-0.1,0c-0.1-0.1-0.2-0.2-0.1-0.3l1-1.8c0.1-0.1,0.2-0.2,0.3-0.1l1.8,1
			c0.1,0.1,0.2,0.2,0.1,0.3c-0.1,0.1-0.2,0.2-0.3,0.1l-1.6-0.8l-0.8,1.6C6.7,23.4,6.6,23.4,6.6,23.4z"/>
	</g>
</g>
</svg>
