<?xml version="1.0" encoding="utf-8"?>
<!-- Generator: Adobe Illustrator 23.0.4, SVG Export Plug-In . SVG Version: 6.00 Build 0)  -->
<svg version="1.1" id="Layer_1" xmlns="http://www.w3.org/2000/svg" xmlns:xlink="http://www.w3.org/1999/xlink" x="0px" y="0px"
	 viewBox="0 0 33.2 33.2" style="enable-background:new 0 0 33.2 33.2;" xml:space="preserve">
<style type="text/css">
	.st0{fill:#BEE9FC;}
	.st1{fill:#FFFFFF;}
	.st2{fill:#FFFFFF;stroke:#000000;stroke-linejoin:round;stroke-miterlimit:10;}
	.st3{fill:#EB5424;}
	.st4{fill:none;stroke:#000000;stroke-linecap:round;stroke-linejoin:round;stroke-miterlimit:10;}
	.st5{fill:#FFFFFF;stroke:#000000;stroke-linecap:round;stroke-linejoin:round;stroke-miterlimit:10;}
	.st6{fill:#FFFFFF;stroke:#444444;stroke-linejoin:round;stroke-miterlimit:10;}
	.st7{fill:none;stroke:#000000;stroke-width:3;stroke-miterlimit:10;}
	.st8{fill:none;stroke:#000000;stroke-width:3;stroke-linejoin:round;stroke-miterlimit:10;}
	.st9{fill:none;stroke:#000000;stroke-width:0.5;stroke-linecap:round;stroke-linejoin:round;stroke-miterlimit:10;}
	.st10{fill:#3445DC;}
	.st11{fill:none;stroke:#EB5424;stroke-linecap:round;stroke-linejoin:round;stroke-miterlimit:10;}
	.st12{fill:none;stroke:#000000;stroke-linejoin:round;stroke-miterlimit:10;}
	.st13{fill:none;stroke:#000000;stroke-linecap:round;stroke-miterlimit:10;}
	.st14{fill:none;stroke:#000000;stroke-width:0.5;stroke-linecap:round;stroke-miterlimit:10;}
	.st15{fill:#FFFFFF;stroke:#FFFFFF;stroke-width:0.5;stroke-linecap:round;stroke-linejoin:round;stroke-miterlimit:10;}
	.st16{fill:#EB5424;stroke:#000000;stroke-linecap:round;stroke-linejoin:round;stroke-miterlimit:10;}
	.st17{fill:#EB5424;stroke:#000000;stroke-miterlimit:10;}
	.st18{fill:none;stroke:#000000;stroke-width:1.5;stroke-miterlimit:10;}
	.st19{fill:none;stroke:#000000;stroke-width:1.5;stroke-linejoin:round;stroke-miterlimit:10;}
	.st20{fill:none;stroke:#FFFFFF;stroke-linecap:round;stroke-linejoin:round;stroke-miterlimit:10;}
	.st21{fill:none;stroke:#000000;stroke-width:0.5;stroke-linejoin:round;stroke-miterlimit:10;}
	.st22{fill:none;stroke:#FFFFFF;stroke-width:0.5;stroke-linecap:round;stroke-linejoin:round;stroke-miterlimit:10;}
	.st23{fill:none;stroke:#EB5424;stroke-width:0.5;stroke-linecap:round;stroke-linejoin:round;stroke-miterlimit:10;}
	.st24{fill:#EB5424;stroke:#000000;stroke-width:0.5;stroke-linecap:round;stroke-linejoin:round;stroke-miterlimit:10;}
	.st25{fill:none;stroke:#000000;stroke-linecap:round;stroke-linejoin:round;stroke-dasharray:0,3.0066;}
	.st26{fill:none;stroke:#000000;stroke-linecap:round;stroke-linejoin:round;stroke-dasharray:0,3.0071;}
	.st27{fill:#FFFFFF;stroke:#444444;stroke-width:1.2;stroke-linejoin:round;stroke-miterlimit:10;}
	.st28{fill:none;stroke:#000000;stroke-width:1.2;stroke-miterlimit:10;}
	.st29{fill:none;stroke:#000000;stroke-width:1.2;stroke-linejoin:round;stroke-miterlimit:10;}
	.st30{clip-path:url(#SVGID_2_);}
	.st31{fill:none;stroke:#000000;stroke-linecap:round;stroke-linejoin:round;stroke-dasharray:0,2.9263;}
	.st32{clip-path:url(#SVGID_4_);}
	.st33{fill:none;stroke:#000000;stroke-linecap:round;stroke-linejoin:round;stroke-dasharray:0,3.0117;}
	.st34{fill:none;stroke:#000000;stroke-width:0.5;stroke-miterlimit:10;}
	.st35{fill:none;stroke:#FFFFFF;stroke-width:0.5;stroke-linejoin:round;stroke-miterlimit:10;}
	.st36{fill:none;stroke:#000000;stroke-width:0.8;stroke-miterlimit:10;}
	.st37{fill:none;stroke:#000000;stroke-width:0.8;stroke-linejoin:round;stroke-miterlimit:10;}
	.st38{fill:none;stroke:#EB5424;stroke-miterlimit:10;}
	.st39{fill:none;stroke:#000000;stroke-miterlimit:10;}
	.st40{fill:none;stroke:#EB5424;stroke-width:0.5;stroke-miterlimit:10;}
	.st41{fill:#FFFDFD;stroke:#EB5424;stroke-linecap:round;stroke-linejoin:round;stroke-miterlimit:10;}
	.st42{fill:none;stroke:#EB5424;stroke-linecap:round;stroke-linejoin:round;stroke-miterlimit:10;stroke-dasharray:2;}
	.st43{fill:#FFFFFF;stroke:#EB5424;stroke-linecap:round;stroke-linejoin:round;stroke-miterlimit:10;}
	
		.st44{fill:none;stroke:#EB5424;stroke-width:0.5;stroke-linecap:round;stroke-linejoin:round;stroke-miterlimit:10;stroke-dasharray:2;}
	.st45{fill:#FFFFFF;stroke:#000000;stroke-width:0.5;stroke-linecap:round;stroke-linejoin:round;stroke-miterlimit:10;}
	.st46{fill:none;stroke:#EB5424;stroke-width:2;stroke-linecap:round;stroke-linejoin:round;stroke-miterlimit:10;}
	.st47{fill:#FFFFFF;stroke:#FFFFFF;stroke-linecap:round;stroke-linejoin:round;stroke-miterlimit:10;}
</style>
<g>
	<g>
		<path class="st1" d="M26.9,26.6h-1.8c-0.1,0-0.2-0.1-0.2-0.2s0.1-0.2,0.2-0.2h1.8c1.1,0,2-1.9,2-4.2s-0.9-4.2-2-4.2h-1.8
			c-0.1,0-0.2-0.1-0.2-0.2s0.1-0.2,0.2-0.2h1.8c1.4,0,2.5,2.1,2.5,4.8S28.3,26.6,26.9,26.6z"/>
	</g>
	<g>
		<path class="st1" d="M25.1,26.6c-0.6,0-1.2-0.4-1.6-1.1c-0.1-0.1,0-0.3,0.1-0.3c0.1-0.1,0.3,0,0.3,0.1c0.4,0.6,0.8,0.9,1.2,0.9
			c1.1,0,2-1.9,2-4.2s-0.9-4.2-2-4.2c-0.5,0-0.9,0.4-1.1,0.8c-0.1,0.1-0.2,0.1-0.3,0.1c-0.1-0.1-0.1-0.2-0.1-0.3c0.4-0.7,1-1,1.5-1
			c1.4,0,2.5,2.1,2.5,4.8S26.5,26.6,25.1,26.6z"/>
	</g>
	<g>
		<path class="st1" d="M23.9,25.6c-0.1,0-0.2-0.1-0.2-0.2s0.1-0.2,0.2-0.2c0.7,0,1.5-1.3,1.5-3.3c0-2-0.8-3.3-1.5-3.3h-5
			c-0.1,0-0.2-0.1-0.2-0.2s0.1-0.2,0.2-0.2H24c0,0,0.1,0,0.1,0c1,0.2,1.8,1.8,1.8,3.8C25.9,23.9,25,25.6,23.9,25.6z"/>
	</g>
	<g>
		<path class="st1" d="M14.3,18.5H9.5c-0.1,0-0.2-0.1-0.2-0.2S9.4,18,9.5,18h4.8c0.1,0,0.2,0.1,0.2,0.2S14.5,18.5,14.3,18.5z"/>
	</g>
	<g>
		<path class="st1" d="M14.3,25.6H9.6c-0.1,0-0.2-0.1-0.2-0.2s0.1-0.2,0.2-0.2h4.7c0.1,0,0.2,0.1,0.2,0.2S14.4,25.6,14.3,25.6z"/>
	</g>
	<g>
		<path class="st1" d="M24,25.6h-5c-0.1,0-0.2-0.1-0.2-0.2s0.1-0.2,0.2-0.2h5c0.1,0,0.2,0.1,0.2,0.2S24.1,25.6,24,25.6z"/>
	</g>
	<g>
		<path class="st1" d="M8.2,26.6H6.4c-0.1,0-0.2-0.1-0.2-0.2s0.1-0.2,0.2-0.2h1.8c1.1,0,2-1.9,2-4.2s-0.9-4.2-2-4.2H6.4
			c-0.1,0-0.2-0.1-0.2-0.2s0.1-0.2,0.2-0.2h1.8c1.4,0,2.5,2.1,2.5,4.8S9.6,26.6,8.2,26.6z"/>
	</g>
	<g>
		<path class="st1" d="M6.4,26.6c-1.4,0-2.5-2.1-2.5-4.8s1.1-4.8,2.5-4.8s2.5,2.1,2.5,4.8S7.8,26.6,6.4,26.6z M6.4,17.6
			c-1.1,0-2,1.9-2,4.2s0.9,4.2,2,4.2s2-1.9,2-4.2S7.5,17.6,6.4,17.6z"/>
	</g>
	<g>
		<ellipse class="st1" cx="6.3" cy="21.9" rx="0.9" ry="2.4"/>
	</g>
	<g>
		<path class="st3" d="M16.5,15.4c-0.1,0-0.2-0.1-0.2-0.2v-0.2c0-0.1,0.1-0.2,0.2-0.2s0.2,0.1,0.2,0.2v0.2
			C16.8,15.3,16.7,15.4,16.5,15.4z M16.5,13.2c-0.1,0-0.2-0.1-0.2-0.2v-2c0-0.1,0.1-0.2,0.2-0.2s0.2,0.1,0.2,0.2v2
			C16.8,13.1,16.7,13.2,16.5,13.2z M16.5,9.2c-0.1,0-0.2-0.1-0.2-0.2v-2c0-0.1,0.1-0.2,0.2-0.2s0.2,0.1,0.2,0.2v2
			C16.8,9.1,16.7,9.2,16.5,9.2z"/>
	</g>
	<g>
		<path class="st3" d="M17.5,26.6h-1.8c-0.1,0-0.2-0.1-0.2-0.2s0.1-0.2,0.2-0.2h1.8c1.1,0,2-1.9,2-4.2s-0.9-4.2-2-4.2h-1.8
			c-0.1,0-0.2-0.1-0.2-0.2s0.1-0.2,0.2-0.2h1.8c1.4,0,2.5,2.1,2.5,4.8S18.9,26.6,17.5,26.6z"/>
	</g>
	<g>
		<path class="st3" d="M15.7,26.6c-0.7,0-1.2-0.3-1.6-1.1c-0.1-0.1,0-0.3,0.1-0.3c0.1-0.1,0.3,0,0.3,0.1c0.4,0.7,0.7,0.9,1.2,0.9
			c1.1,0,2-1.9,2-4.2s-0.9-4.2-2-4.2c-0.5,0-0.9,0.5-1.2,0.8c-0.1,0.1-0.2,0.1-0.3,0.1c-0.1-0.1-0.1-0.2-0.1-0.3
			c0.4-0.7,1-1.1,1.6-1.1c1.4,0,2.5,2.1,2.5,4.8S17.1,26.6,15.7,26.6z"/>
	</g>
	<g>
		<path class="st3" d="M14.3,25.6c-0.1,0-0.2-0.1-0.2-0.2s0.1-0.2,0.2-0.2c0.8,0,1.7-1.4,1.7-3.3c0-2-0.8-3.3-1.5-3.3
			c-0.1,0-0.2-0.1-0.2-0.2s0.1-0.2,0.2-0.2c1.1,0,2,1.7,2,3.8C16.5,23.8,15.5,25.6,14.3,25.6z"/>
	</g>
</g>
</svg>
